<?xml version="1.0" encoding="utf-8"?>
<!-- Generator: Adobe Illustrator 23.0.2, SVG Export Plug-In . SVG Version: 6.00 Build 0)  -->
<svg version="1.1" id="レイヤー_1" xmlns="http://www.w3.org/2000/svg" xmlns:xlink="http://www.w3.org/1999/xlink" x="0px"
	 y="0px" viewBox="0 0 2154.44 1008.05" style="enable-background:new 0 0 2154.44 1008.05;" xml:space="preserve">
<style type="text/css">
	.st0{fill:none;stroke:#000000;stroke-width:10;stroke-miterlimit:10;}
</style>
<polygon points="535.64,634.01 510.04,475.33 458.94,634.01 410.67,634.01 359.57,475.33 348.01,546.99 369.47,546.99 
	369.47,572.91 343.83,572.91 342.04,584.02 369.47,584.02 369.47,609.94 337.86,609.94 333.97,634.01 285.69,634.01 289.58,609.94 
	246.35,609.94 246.35,584.02 293.76,584.02 295.55,572.91 246.35,572.91 246.35,546.99 299.73,546.99 327.35,375.73 327.49,375.73 
	375.63,375.73 375.77,375.73 434.81,559.05 493.84,375.73 493.98,375.73 542.12,375.73 542.26,375.73 583.92,634.01 "/>
<path class="st0" d="M1730.27,225.57c-153.48,0-277.91,124.42-277.91,277.91s124.42,277.91,277.91,277.91
	c153.48,0,277.91-124.42,277.91-277.91S1883.76,225.57,1730.27,225.57z"/>
<polygon points="1831.64,634.01 1806.04,475.33 1754.94,634.01 1706.67,634.01 1655.57,475.33 1644.01,546.99 1665.47,546.99 
	1665.47,572.91 1639.83,572.91 1638.04,584.02 1665.47,584.02 1665.47,609.94 1633.85,609.94 1629.97,634.01 1581.69,634.01 
	1585.58,609.94 1542.35,609.94 1542.35,584.02 1589.76,584.02 1591.55,572.91 1542.35,572.91 1542.35,546.99 1595.73,546.99 
	1623.35,375.73 1623.49,375.73 1671.63,375.73 1671.77,375.73 1730.81,559.05 1789.84,375.73 1789.98,375.73 1838.12,375.73 
	1838.26,375.73 1879.92,634.01 "/>
<path d="M1082.27,225.57c-153.48,0-277.91,124.42-277.91,277.91s124.42,277.91,277.91,277.91c153.48,0,277.91-124.42,277.91-277.91
	S1235.76,225.57,1082.27,225.57z M1183.64,634.01l-25.59-158.68l-51.1,158.68h-48.28l-51.1-158.68l-11.56,71.66h21.46v25.92h-25.64
	l-1.79,11.11h27.44v25.92h-31.62l-3.88,24.07h-48.28l3.88-24.07h-43.22v-25.92h47.41l1.79-11.11h-49.2v-25.92h53.38l27.62-171.26
	h0.14h48.14h0.14l59.03,183.32l59.03-183.32h0.14h48.14h0.14l41.66,258.27H1183.64z"/>
</svg>
