<?xml version="1.0" encoding="utf-8"?>
<!-- Generator: Adobe Illustrator 23.0.2, SVG Export Plug-In . SVG Version: 6.00 Build 0)  -->
<svg version="1.1" id="レイヤー_1" xmlns="http://www.w3.org/2000/svg" xmlns:xlink="http://www.w3.org/1999/xlink" x="0px"
	 y="0px" viewBox="0 0 1080 1920" style="enable-background:new 0 0 1080 1920;" xml:space="preserve">
<path d="M777.74,396.36c-35.87-21.62-82.47-10.07-104.09,25.8c-21.44,35.57-10.25,81.68,24.92,103.53c-2.2,3.68-4.49,7.5-6.89,11.5
	c-23.4-0.65-46.77,9.5-62.17,29.44c-19.33,25.03-20.56,58.31-5.73,84.13c-24.19,41.05-47.86,82.31-64.83,114.92
	c8.97-44.42,24.94-121.62,39.12-187.74c28.88-8.95,50.79-34.78,53.19-66.76c1.79-23.86-7.68-45.96-23.9-61.12
	c3.24-12.61,6.86-26.46,11.24-43.02c0.33,0.06,0.66,0.13,0.99,0.18c41.36,6.57,80.22-21.64,86.78-63
	c6.57-41.36-21.64-80.22-63-86.78c-23.04-3.66-45.3,3.48-61.63,17.67c1.05-5.04,1.61-10.25,1.61-15.6
	c0-41.88-33.95-75.83-75.83-75.83c-41.88,0-75.83,33.95-75.83,75.83c0,17.74,6.11,34.04,16.31,46.96
	c-21.45,8.35-38.73,26.3-45.45,49.79c-22.68-24.17-59.48-31.4-90.32-15.33c-37.14,19.36-51.55,65.15-32.2,102.29
	c19.06,36.56,63.74,51.08,100.55,33.05c4.6,9.28,9.61,19.38,14.94,30.08c-10.9,4.83-20.81,12.31-28.71,22.32
	c-25.94,32.88-20.32,80.56,12.55,106.5c24.81,19.58,58.04,21.17,84,6.66c24.67,48.82,47.98,94.54,63.21,123.74
	c-1.97,1.13-4.11,2.8-5.05,4.09c-1.63,2.24-3.87,9.37-4.07,11.61c-0.2,2.24-1.07,4.09-1.43,7.13c-0.61,5.25,2.93,20.16,4.48,24.74
	c1.72,5.07,2.2,16.65,1.1,23.38c-1.94,12.09-4.29,23.25-6.12,32.18c-3.34,16.22-8.3,40.04-9.37,62.56
	c-1.51-0.03-2.68-0.28-3.39,0.96c-0.95,1.65-0.54,3.55-1.09,4.23c-0.54,0.68-2.31-0.27-3.53,1.49c-1.22,1.76-2.99,5.02-3.26,7.06
	c-0.24,1.82-0.27,5.93,0.51,9.21c0.09,0.38,0.19,0.76,0.31,1.11c-0.95,0.41-0.42-1.02-1.49,0.61c-1.07,1.63-1.9,1.7-2.44,3.73
	c-0.54,2.04-0.41,12.22-1.36,16.43s-5.7,16.7-9.23,22.4c-3.53,5.7-5.23,10.66-7.81,12.69c-2.58,2.04-4.88,2.99-5.83,4.89
	c-0.95,1.9-0.7,1.93-1.53,2.84c-0.63,0.69-1.38,1.93-1.59,2.12c0.21-0.19-0.31,0.47-0.82,0.77c-2.66-6.08-5.85-13.69-6.64-18.62
	c4.35-2.74,8.9-5.33,13.19-8c4.89-3.05,7.3-5.53,7.83-9.87c0.46-3.73-0.39-6.32-1.37-8.98c-0.98-2.66-1.77-4.71-1.95-6.14
	c-0.18-1.43-0.16-3.06-1.16-4.5c-1-1.44-2.65-0.04-2.65-0.04s0.83-1.41,1.26-2.63c0.42-1.22,0.87-3.86,0.07-5.09
	c-0.8-1.23-1.18-2.66-2.78-4.93c-1.6-2.26-2.56-6.35-3.33-9.62c-0.77-3.27-1.14-4.59-3.17-5.43c-2.02-0.84-9.57,0.1-13.64-0.31
	c-4.07-0.41-11.61-8.96-16.09-12.63c-3.83-3.14-10.28-6.97-19.39-9.45c0-0.03-0.01-0.05-0.01-0.08c6.63,0.93,13.02,2.93,18.46,6.27
	c2.49,1.53,4.32,3.09,6.14,5.03c-0.09,0.5-0.21,1.01-0.37,1.55c0.24-0.39,0.41-0.85,0.57-1.33c0.4,0.43,0.79,0.86,1.2,1.33
	c-0.23-0.83-0.54-1.73-0.89-2.65c0.27-1.59,0.28-3.39,0.08-5.09c-0.34-2.99-2.31-6.48-6.66-9.64c-5.97-4.34-14.46-8.36-32.24-8.96
	c-9.08-0.31-14.98,1.7-19.01,4.1c-6.56,0.74-14.55,3.08-18.94,6.29c-5.29,3.87-11,10.39-13.85,14.66
	c-2.85,4.28-7.13,9.57-8.76,14.46c-1.63,4.89-4.68,11-5.09,18.12c-0.41,7.13-2.24,15.88-1.22,24.64c1.02,8.76,2.65,16.9,3.05,22.2
	c0.41,5.29-1.02,19.69-0.41,28.51c0.75,10.73,2.87,17.09,4.97,21.99c2.56,5.97,8.67,10.79,8.67,10.79s-2.38-7.2-3.6-11.68
	c-1.22-4.48-1.62-11.02-1.62-11.02s1.11,6.23,2.64,10.13c1.58,4.01,4.07,10.52,7.53,12.29c-0.61-3.12-1.1-6.37-1.49-9.71
	c-0.41-3.46-0.73-5.56-0.73-5.56s1.68,5.49,3.31,10.38c1.63,4.89,4.55,8.82,5.97,10.66c-0.58-3.48-1.53-6.52-2.6-13.64
	c-1.07-7.13-1.64-19.21-1.82-25.8c0.95,7.74,1.99,14.08,2.78,18.4c1.29,7.06,4.68,17.48,8.96,21.29c-0.81-2.56-1.81-5.83-2.65-9.35
	c-0.96-4-1.54-9.5-1.54-9.5s1.67,6.45,3.85,10.52c2.57,4.81,4.34,6.65,8.01,8.55c-1.12-3.2-2.49-6.91-3.05-10.18
	c-0.79-4.53-0.88-9.23-1.09-14.05c0.99,4.6,1.66,10.81,2.24,13.24c0.88,3.72,1.36,6.86,3.67,10.73c0.54-4.89,1.01-9.91,1.43-12.22
	c0.14,2.72,0.27,12.64,0.48,13.58c0.61-2.93,1.36-6.25,1.36-9.91c0-3.67,0.03-5.17-0.51-8.41c0.89,2.49,1.32,3.89,1.68,8.75
	c0.33,4.47-0.42,8.72-0.63,9.57c1.65-1.14,4.07-3.19,5.7-6.25c1.63-3.05,3.26-8.76,3.26-8.76s0.61,2.31,0.81,5.57
	c0.08,1.29,0.04,4.37,0.31,6.58c0.35-0.35,0.57-0.7,0.79-1.13c0.05,0.55,0.18,1.06,0.33,1.6c1.05-1.6,2.65-4.96,3.46-7.2
	c0.81-2.24,2.31-7.06,2.31-7.06l-0.2,6.75c0,0,1.05-1.73,1.6-2.83c0.17,1.14,0.37,2.19,0.37,2.19s1.53-2.57,2.98-6.31
	c1.13-2.92,1.7-6.72,1.7-6.72s0.07,5.16-0.07,7.4c0.77-0.61,0.82-0.87,1.91-2.3c1.07-2.04,1.21-8.57,1.21-8.57s0.88,6.65,0.2,9.44
	c0.78,0.07,1.83-0.99,2.84-1.85c1.09-0.93,1.84-6.77,1.84-6.77v5.23c0,0,2.86-1.8,2.95-2.64c0.09-0.84,0.16-1.43,0.37-3.26
	c0.22-1.83,0.54-4.14,1.15-5.43c-0.2,1.83-0.21,6.24-0.27,7.54c1.19-0.43,2.94-3.07,4.34-6.65c1.32-3.39,2.13-6.01,2.78-10.73
	c0.51,1.24,1.55,2.36,1.97,3.67c0.92,2.8,1.36,4.65,1.49,7.47c-0.52,0.75-1.87,2.01-2.31,2.99c-2.31,5.16-5.57,8.15-5.57,10.18
	c0,2.04,0.95,4.62,2.17,7.2s2.31,3.26,1.49,7.06c-0.81,3.8-1.38,8.61-0.92,11.88c0.06,0.46,0.24,1.92,0.52,4.06
	c-4.98,12.22-8.95,30.05-11.82,40.47c-2.87,10.42-7.95,29.67-8.01,35.43c-0.07,6.31,1.29,12.02,2.31,16.91
	c0.1,0.5,0.23,1.03,0.35,1.57c-0.57,2.19-1.19,4.21-1.78,5.77c-1.63,4.28-7.33,15.88-10.18,22.6c-2.85,6.72-6.11,21.38-7.53,27.29
	c-1.43,5.91-6.52,11.4-8.15,13.64c-1.63,2.24-3.26,5.29-1.83,7.74c1.43,2.44,0,4.89,1.22,6.72c1.22,1.83-2.44,3.46-5.29,6.11
	c-2.85,2.65-7.13,4.68-7.33,6.52c-0.2,1.83,0.81,5.29,1.83,7.74c1.02,2.44,2.04,7.94,4.28,10.59c1.32,1.56,2.89,3.76,5.44,5.64
	c-0.64,3.45-1.36,6.75-1.47,9.02c-0.2,4.48-2.55,7.74-2.55,9.57c0,1.83-0.41,3.05,0,4.68c0.41,1.63-1.83,3.87-2.65,5.91
	s-2.65,4.28-2.04,6.52c0.61,2.24,1.22,4.48,2.65,5.7c1.43,1.22,1.12,2.47,2.29,3.88s2.39,2.03,3.21,3.65
	c0.81,1.63,1.22,5.5,2.85,6.31c1.63,0.81,7.13-0.92,8.96-2.14c0.73-0.49,1.51-1.12,2.27-1.86c0.29,0.6,0.55,1.34,0.78,2.37
	c0.81,3.67,3.46,18.12,5.29,21.79c1.83,3.67,2.44,6.11,3.26,7.74s0.61,7.94,2.04,11.4c1.43,3.46,1.22,8.96,5.7,8.55
	c4.48-0.41,5.7-2.44,7.13-7.33c1.43-4.89,2.85-10.79,4.28-14.46c1.43-3.67,3.05-4.28,4.07-8.35c1.02-4.07,3.46-10.59,4.28-16.09
	c0.59-4,2.05-9.5,3.27-14.09c0.77,1.24,1.38,2.14,1.76,2.5c0.82,0.79,1.6,1.2,2.56,1.58c-2.49,12.75-5.11,27.61-5.89,37.47
	c-1.09,13.82-1.36,29.02-5.7,34.45c-4.34,5.43-9.98,9.23-15.99,14.39c-6.01,5.16-16.33,14.39-25.01,26.34
	c-8.69,11.95-22.81,44.26-30.95,71.41c-8.15,27.15-13.01,41.38-17.92,52.13c-4.19,9.19-6.79,13.58-10.86,17.38
	c-4.07,3.8-8.03,5.79-11.13,10.59c-1.27,1.96-2.79,4.62-3.54,7.5c-1.92,0.43-3.8,1.06-4.51,1.97c-1.02,1.32-3.16,5.3-3.97,8.45
	c-0.81,3.16-2.34,7.23-1.73,8.65s9.2,12.73,21.69,23.52c12.61,10.9,22.75,18.35,30.14,20.26c5.91,1.53,7.53,1.02,9.67,0
	c2.14-1.02,5.5-4.17,6.11-6.52s0-3.46,0-3.46s1.12-0.92,1.12-2.24c0-1.32-0.41-1.83-1.22-3.36c-0.81-1.53-2.34-4.28-3.05-6.92
	c-0.19-0.69-0.41-1.31-0.65-1.87c0.48-0.24,0.83-0.44,0.95-0.58c0.63-0.7,0.2-3.05-0.41-4.58c-0.61-1.53-0.71-2.55-2.44-2.65
	c-0.43-0.03-1.13,0.11-1.97,0.34c-1.71-3.6-3.89-8.62-5.16-13.17c-2.05-7.35-3.66-15.87-4.68-23.22
	c-0.91-6.48,0.58-11.64,3.56-18.43s19.55-40.19,30.95-57.56s27.15-36.66,34.21-44.94c6.43-7.54,10.5-13.2,14.61-21.12
	c3.73-1.74,8.11-3.86,11.46-6.3c2.73-1.99,5.75-4.53,8.84-7.34c-0.83,2.81-1.76,5.68-2.93,8.56c-3.16,7.78-11.68,19.8-16.09,34.82
	c-4.4,15.03-5.09,53.04-4.89,83.09c0.2,30.55,1.62,44.84,0.61,58.24c-0.8,10.68-1.16,16.14-3.87,21.38
	c-2.71,5.25-5.12,9.03-6.51,14.92c-0.57,2.41-1.14,5.61-0.85,8.75c-1.76,1.12-3.42,2.41-3.79,3.57c-0.54,1.68-1.26,6.41-0.94,9.85
	s0.24,8.05,1.36,9.25c1.12,1.2,13.73,9.42,30.04,15.73c16.47,6.37,29.26,10.19,37.31,9.46c6.44-0.58,7.88-1.67,9.65-3.45
	c1.77-1.78,4-6.13,3.77-8.68c-0.23-2.55-1.24-3.45-1.24-3.45s0.79-1.31,0.32-2.64c-0.47-1.32-1.06-1.68-2.42-2.92
	c-1.36-1.23-3.86-3.43-5.52-5.82c-0.43-0.62-0.88-1.16-1.31-1.63c0.39-0.41,0.67-0.74,0.75-0.92c0.38-0.93-0.89-3.12-2.04-4.43
	c-1.16-1.31-1.62-2.29-3.38-1.77c-0.44,0.13-1.09,0.51-1.84,1.05c-2.99-2.99-6.96-7.22-9.85-11.31
	c-4.67-6.61-9.32-14.53-12.97-21.49c-3.22-6.14-4.41-13.14-3.85-20.98c0.56-7.84,6.26-45.73,10.18-67.41
	c4.68-25.86,9.97-47.73,13.03-58.85c2.39-8.68,5.52-20.8,8.51-31.34c4.37-4.13,8.41-8.9,11.25-14.89
	c5.57-11.76,13.31-32.04,20.91-76.57c2.97-17.41,4.86-34.5,6.03-51.47c2.49-0.71,3.24-1.14,4.15-2.29c0.81-1.02,1.4-3.4,1.75-5.45
	c3.34,0.15,6.71,0.15,8.16,0.04c1.76-0.14,2.58-0.16,2.44-1.92c-0.05-0.68-0.06-1.95-0.06-3.42c3.37,0.03,7.16,0.02,9.39-0.11
	c4.72-0.27,7.77-0.41,8.32-1.76c0.26-0.66,0.02-4.72-0.31-8.73c2.17-0.2,4.45-0.45,6.42-0.77c4.21-0.68,6.92-1.77,8.01-2.31
	c1.09-0.54,2.04-1.49,2.31-2.44c0.1-0.37-0.01-2.36-0.24-4.86c4.57-2.62,8.67-7.85,9.88-8.98c1.15-1.08,0.27-1.9,0-2.99
	c-0.18-0.72-3.37-9.62-6.12-16.7c1.48-0.92,2.73-1.79,3.88-2.71c4.07-3.26,9.37-8.76,9.57-11.4c0.2-2.65-0.81-3.46-2.24-6.31
	c-1.43-2.85-11-20.36-13.24-26.47c-2.24-6.11-5.91-19.14-8.96-25.25c-3.05-6.11-5.09-11.61-6.72-16.5
	c-1.63-4.89-4.68-15.07-7.94-19.14c-2.61-3.26-4.45-5.34-7.47-7.51c6.98-4.41,4.61-8.44,3.81-13.27c-0.81-4.89-4.89-7.58-4.89-13.44
	c0-6.32-2.24-15.48-4.89-21.18c-1.15-2.48-2.89-5.38-4.86-8.26c5.36-1.75,10.34-3.46,14.64-5.18c13.24-5.29,17.68-10.64,17.11-14.05
	c-3.1-18.52-6.42-31.66-11.27-45.55c-1.96-5.63-4.62-8.15-6.38-14.53c-1.76-6.38-3.26-13.17-4.75-23.08
	c-1.49-9.91-3.94-22.27-8.42-32.58c-1.99-4.58-4.09-12.32-6.04-19.88c1-10.57,5.26-22.38,7.4-37.36
	c2.29-16.04,4.29-30.57,5.16-50.55c0.46-10.62,1.29-32.94,1.01-50.72c0.02-0.13,0.04-0.23,0.06-0.37
	c0.94-7.23,5.42-13.54,7.15-19.24c1-3.31,1.58-7.03,3.16-8.55c3.26-3.16,0.71-10.59-0.1-11.81c-0.81-1.22,0-3.26-0.61-4.28
	c-0.61-1.02-2.44-4.48-4.48-4.89c-0.29-0.06-0.54-0.14-0.77-0.23c19.94-25.91,50.78-63.02,72.26-88.86
	c2.58-3.11,5.04-6.07,7.38-8.88c33.13,25.21,80.44,19,105.92-14c25.6-33.15,19.47-80.77-13.68-106.36
	c-12.1-9.34-26.13-14.44-40.31-15.56c2.07-3.46,4.05-6.76,5.97-9.97c35.57,19.96,80.8,8.2,102-26.98
	C825.16,464.58,813.61,417.98,777.74,396.36z M457.09,919.63c0.91,1.6,1.46,3.31,1.44,5.29c-1.33-3.24-3.28-6.6-5.27-8.44
	C455.13,917.39,456.41,918.43,457.09,919.63z M404.91,1348.82c-0.47-1.32-0.17-2.76,0.23-3.83c0.53,0.95,1.03,1.93,1.54,2.86
	C405.75,1348.63,405.14,1349.46,404.91,1348.82z M559.72,744.63c5.41-53.11,10.98-113.61,15.01-163.31
	c6.75,0.09,13.32-0.72,19.6-2.32C582.22,635.5,568.88,699.73,559.72,744.63z M600.56,543.1l-3.72-43.7l-17.15,42.13l-13.14-0.99
	l-10.66-44.22l-4.61,19.26l5.84,0.44l-0.53,7.05l-6.98-0.52l-0.71,2.99l7.47,0.56l-0.53,7.05l-8.6-0.65l-1.55,6.47l-13.14-0.99
	l1.55-6.47l-11.76-0.88l0.53-7.05l12.9,0.97l0.71-2.99l-13.39-1.01l0.53-7.05l14.52,1.09l11.01-46.03l0.04,0l13.1,0.98l0.04,0
	l12.32,51.09l19.81-48.67l0.04,0l13.1,0.98l0.04,0l6.06,71.13L600.56,543.1z M500.03,499.83c-0.64,8.49,0.19,16.75,2.2,24.56
	c-1.95-2.12-4.04-4.15-6.27-6.08c-5.84-22.09-11.22-42.29-14.8-55.66l-0.48-1.8c-0.85-3.18-1.66-6.46-2.3-9.81
	c0.16,0.04,0.31,0.09,0.47,0.12c18.61,4.17,37.14,1.1,52.69-7.33C513.9,456.46,501.78,476.52,500.03,499.83z M515.43,606.94
	c2.07,8.23,3.86,15.49,5.24,21.32c6.23,26.32,19.54,83.39,28.46,121.67c-15.52-56.48-27.54-98.05-38.67-133.77
	C512.35,613.17,514,610.09,515.43,606.94z M597.39,346.01l12.78,2.03l0.96-2.92l-13.26-2.1l1.11-6.99l14.38,2.28l14.77-44.97
	l0.04,0.01l12.97,2.06l0.04,0.01l8.07,51.93L673,300.46l0.04,0.01l12.97,2.06l0.04,0.01l0.18,71.38l-13.01-2.07L673.1,328
	l-20.56,40.58l-13.01-2.07l-6.98-44.95l-6.18,18.82l5.78,0.92l-1.11,6.99l-6.91-1.1l-0.96,2.92l7.39,1.17l-1.11,6.99l-8.52-1.35
	l-2.08,6.32l-13.01-2.07l2.08-6.32l-11.65-1.85L597.39,346.01z M635.22,406.4c-4.16,15.72-7.64,29.01-10.75,41.11
	c-11.76-9.92-26.63-16.37-43.14-17.61c-15.05-1.13-29.4,2.23-41.76,8.93c14.63-10.46,25.62-26.13,29.86-45.06
	c5.2-23.18-0.83-46.25-14.47-63.56c8.24-3.2,15.77-7.79,22.32-13.5c-0.26,1.23-0.49,2.48-0.69,3.74
	C570.25,360.34,596.26,397.88,635.22,406.4z M476.24,281.49h12.94l0.49-3.03h-13.42v-7.07h14.56l7.54-46.73h0.04h13.13h0.04
	l16.11,50.02l16.11-50.02h0.04h13.13h0.04l11.37,70.47h-13.17l-6.98-43.3l-13.94,43.3h-13.17l-13.94-43.3l-3.15,19.55h5.86v7.07h-7
	l-0.49,3.03h7.49v7.07h-8.63l-1.06,6.57h-13.17l1.06-6.57h-11.79V281.49z M440.59,387.4l12.62,2.83l1.14-2.85l-13.1-2.94l1.55-6.9
	l14.21,3.19l17.58-43.95l0.04,0.01l12.82,2.87l0.04,0.01l4.78,52.33l26.66-45.28l0.04,0.01l12.82,2.87l0.04,0.01l-4.33,71.25
	l-12.85-2.88l2.66-43.78l-23.08,39.2l-12.85-2.88l-4.13-45.3l-7.36,18.39l5.71,1.28l-1.55,6.9l-6.83-1.53l-1.14,2.85l7.3,1.64
	l-1.55,6.9l-8.42-1.89l-2.47,6.18l-12.85-2.88l2.47-6.18l-8.59-1.93c-0.4-2.28-0.92-4.54-1.54-6.8L440.59,387.4z M378.04,442.74
	l-32.38-31.95l6.24,18.8l5.19-2.71l3.27,6.27l-6.21,3.23l0.97,2.91l6.64-3.46l3.27,6.27l-7.65,3.99l2.1,6.31l-11.68,6.09l-2.1-6.31
	l-10.46,5.45l-3.27-6.27l11.47-5.98l-0.97-2.91l-11.9,6.2l-3.27-6.27l12.92-6.73l-14.91-44.92l0.03-0.02l11.65-6.07l0.03-0.02
	l37.4,36.91l-8.83-51.8l0.03-0.02l11.65-6.07l0.03-0.02l42.65,57.24l-11.68,6.09l-26.2-35.17l7.65,44.84L378.04,442.74z
	 M403.44,474.81c18.58-10.07,31.29-26.83,36.71-45.73c9.12,9.73,20.91,17.12,34.54,20.98c0.69,4.02,1.66,7.91,2.66,11.68l0.48,1.8
	c3.33,12.46,8.24,30.85,13.62,51.18c-21.7-16.08-49.36-18.89-72.96-9.6C413.13,494.34,408.07,484.16,403.44,474.81z M478.48,592.43
	l-8.16,10.34l-42.63-15.88l13.4,14.59l3.63-4.6l5.55,4.38l-4.33,5.49l2.08,2.26l4.64-5.88l5.55,4.38l-5.34,6.77l4.5,4.9l-8.16,10.34
	l-4.5-4.9l-7.31,9.26l-5.55-4.38l8.01-10.15l-2.08-2.26l-8.32,10.54l-5.55-4.38l9.02-11.43l-32.01-34.86l0.02-0.03l8.14-10.31
	l0.02-0.03l49.24,18.34l-29.29-43.63l0.02-0.03l8.14-10.31l0.02-0.03l62.36,34.73L491.44,576l-38.32-21.34L478.48,592.43z
	 M486.35,640.09c7.28-4.52,13.91-10.35,19.53-17.46c0.73-0.93,1.43-1.87,2.12-2.83c11.68,37.65,24.41,81.94,41.17,143.28
	C533.91,733.82,510.79,688.47,486.35,640.09z M524.01,627.47c-1.63-6.89-3.83-15.78-6.4-25.9c5.28-14.51,5.92-30.15,2.17-44.8
	c6.22,6.78,13.67,12.44,22.03,16.61c1.48,36.19,3.58,77.98,5.64,118.68c0.79,15.57,1.55,30.72,2.26,45.22
	C540.99,699.87,529.63,651.19,524.01,627.47z M553.7,748.63c-0.86-17.9-1.82-36.99-2.82-56.75c-2.02-40.03-4.09-81.1-5.56-116.87
	c4.32,1.88,8.85,3.39,13.57,4.45c-0.71,21.31-1.37,44.76-2.06,69.09C555.87,682.59,554.88,717.43,553.7,748.63z M557.85,728.9
	c0.88-25.78,1.65-53.27,2.42-80.24c0.68-24.11,1.34-47.35,2.04-68.49c2.51,0.45,5.06,0.77,7.66,0.96c0.44,0.03,0.88,0.04,1.32,0.07
	C567.64,626.11,562.76,679.79,557.85,728.9z M633.6,680.01c-21.57,25.94-52.56,63.24-72.55,89.23c-0.02-0.01-0.04-0.02-0.05-0.03
	c16.78-32.43,40.48-73.81,64.81-115.12c4.06,6.29,9.11,12.06,15.13,17.08C638.62,673.97,636.17,676.92,633.6,680.01z M698.17,575.61
	l0.03,0.02l-17.82,49.44l43.32-29.75l0.03,0.02l10.4,8.03l0.03,0.02l-34.07,62.73l-10.43-8.05l20.93-38.54l-37.5,25.75l-10.43-8.05
	l15.43-42.79l-14.45,13.55l4.64,3.58l-4.32,5.6l-5.54-4.28l-2.24,2.1l5.93,4.58l-4.32,5.6l-6.83-5.27l-4.85,4.55l-10.43-8.05
	l4.85-4.55l-9.34-7.21l4.32-5.6l10.24,7.91l2.24-2.1l-10.63-8.2l4.32-5.6l11.53,8.9l34.52-32.38l0.03,0.02L698.17,575.61z
	 M755.18,512.89l-11.28-6.8l16.37-40.69l-34.29,29.88l-11.28-6.8l10.41-44.28l-12.8,15.12l5.02,3.02l-3.65,6.06l-5.99-3.61
	l-1.98,2.34l6.41,3.86l-3.65,6.06l-7.39-4.45l-4.3,5.08l-11.28-6.8l4.3-5.08l-10.1-6.09l3.65-6.06l11.08,6.68l1.98-2.34l-11.5-6.93
	l3.65-6.06l12.47,7.52l30.58-36.13l0.03,0.02l11.25,6.78l0.03,0.02l-12.03,51.15l39.62-34.52l0.03,0.02l11.25,6.78l0.03,0.02
	L755.18,512.89z"/>
</svg>
