<?xml version="1.0" encoding="utf-8"?>
<!-- Generator: Adobe Illustrator 23.0.2, SVG Export Plug-In . SVG Version: 6.00 Build 0)  -->
<svg version="1.1" id="レイヤー" xmlns="http://www.w3.org/2000/svg" xmlns:xlink="http://www.w3.org/1999/xlink" x="0px"
	 y="0px" viewBox="0 0 2085.46 2088" style="enable-background:new 0 0 2085.46 2088;" xml:space="preserve">
<style type="text/css">
	.st0{fill:#FFFFFF;}
	.st1{fill:#FFCE00;}
</style>
<g>
	<circle class="st0" cx="575.99" cy="577.48" r="431.01"/>
	<path d="M573.72,146.47c238.04-1.25,432.02,190.7,433.28,428.74c1.25,238.04-190.7,432.02-428.74,433.28
		c-238.04,1.25-432.02-190.7-433.28-428.74S335.68,147.73,573.72,146.47 M573.64,131.47c-60.2,0.32-118.55,12.42-173.43,35.97
		c-52.99,22.74-100.52,55.15-141.26,96.32c-40.74,41.17-72.65,89.04-94.83,142.27c-22.97,55.12-34.46,113.59-34.14,173.8
		c0.32,60.2,12.42,118.55,35.97,173.43c22.74,52.99,55.15,100.52,96.32,141.26c41.17,40.74,89.04,72.65,142.27,94.83
		c55.12,22.97,113.59,34.46,173.8,34.14c60.2-0.32,118.55-12.42,173.43-35.97c52.99-22.74,100.52-55.15,141.26-96.32
		c40.74-41.17,72.65-89.04,94.83-142.27c22.97-55.12,34.46-113.59,34.14-173.8c-0.32-60.2-12.42-118.55-35.97-173.43
		c-22.74-52.99-55.15-100.52-96.32-141.26c-41.17-40.74-89.04-72.65-142.27-94.83C692.32,142.64,633.85,131.16,573.64,131.47
		L573.64,131.47z"/>
</g>
<path d="M577.45,855.08c-74.15,0.39-144.01-28.12-196.72-80.27c-52.71-52.15-81.95-121.71-82.34-195.86
	c-0.39-74.15,28.12-144.01,80.27-196.72s121.71-81.95,195.86-82.34c74.15-0.39,144.01,28.12,196.72,80.27s81.95,121.71,82.34,195.86
	c0.39,74.15-28.12,144.01-80.27,196.72C721.16,825.45,651.6,854.69,577.45,855.08z M574.57,307.89
	c-72.01,0.38-139.57,28.78-190.22,79.97c-50.65,51.19-78.34,119.04-77.96,191.05s28.78,139.57,79.97,190.22
	c51.19,50.65,119.04,78.34,191.05,77.96s139.57-28.78,190.22-79.97c50.65-51.19,78.34-119.04,77.96-191.05
	s-28.78-139.57-79.97-190.22C714.43,335.19,646.58,307.51,574.57,307.89z"/>
<g>
	<path d="M301.45,740.61c0.21-9.99-1.62-19.04-5.51-27.16c-3.42-7.14-7.91-9.38-13.47-6.72c-4.74,2.26-6.61,6.95-5.61,14.05
		c1.87,12.22,1.63,21.41-0.73,27.58c-2.36,6.17-7.04,10.92-14.03,14.26c-16.54,7.91-29.79,1.46-39.75-19.37
		c-4.28-8.95-6.1-17.87-5.46-26.76l16.69-7.98c-1.44,9.55-0.26,18.28,3.51,26.17c1.98,4.13,4.26,6.88,6.85,8.23
		c2.59,1.35,5.34,1.32,8.28-0.08c2.56-1.22,4.29-2.95,5.21-5.19c0.91-2.24,1.07-5.43,0.48-9.58c-1.56-11.17-1.08-20.02,1.44-26.53
		c2.52-6.52,7.08-11.36,13.7-14.52c7.22-3.45,14.13-3.67,20.75-0.64c6.62,3.02,12.18,9.23,16.67,18.63c4.67,9.77,7.2,19,7.57,27.7
		L301.45,740.61z"/>
	<path d="M264.79,811.6l72.93-58.51l14.94,18.62l-72.93,58.51L264.79,811.6z"/>
	<path d="M314.92,868.42l55.82-75.01l16.75,12.46l-10.09,64.01l0.2,0.15l34.25-46.03l16.75,12.46l-55.82,75.01l-16.75-12.46
		L366.12,835l-0.2-0.15l-34.25,46.03L314.92,868.42z"/>
	<path d="M454.16,898.05c-3.06,9.26-3.24,17.17-0.53,23.72c2.71,6.55,7.7,11.03,14.98,13.44c6.49,2.14,13.88,3.14,22.18,2.98
		l-5.8,17.57c-7.96-0.61-16.06-2.28-24.28-5c-13.29-4.39-22.44-11.76-27.45-22.1c-5.01-10.34-5.08-22.87-0.22-37.59
		c4.76-14.4,12.14-24.38,22.14-29.94c10-5.56,21.6-6.16,34.82-1.79c8.55,2.82,15.95,6.32,22.2,10.5l-5.84,17.68
		c-6.68-5.01-13.15-8.56-19.4-10.62c-7.36-2.43-13.89-1.87-19.58,1.69C461.67,882.15,457.27,888.63,454.16,898.05z"/>
	<path d="M561.05,890.62l-0.45,18.99l35.37,0.83l-0.39,16.5l-35.37-0.83l-0.54,22.87l37.86,0.89l-0.41,17.5l-59.61-1.4l2.2-93.47
		l59.61,1.4l-0.41,17.62L561.05,890.62z"/>
	<path d="M681.13,933.94l0.07,0.24l33.85-10.27l5.08,16.75l-61.25,18.57l-5.08-16.75c12.36-17.24,20.17-29.67,23.44-37.28
		c3.27-7.61,4.03-14.28,2.29-20.03c-2.27-7.49-7.6-9.97-15.97-7.43c-6.7,2.03-14.38,6.84-23.05,14.43l-5.77-19.02
		c7.81-6.11,16.7-10.68,26.67-13.7c9.89-3,18.22-2.95,24.99,0.13c6.77,3.09,11.41,8.78,13.93,17.07c2.2,7.26,2.02,14.84-0.54,22.76
		C697.23,907.33,691.01,918.84,681.13,933.94z"/>
	<path d="M725.9,845.54c0.7-9.58,6.22-17.92,16.56-25.02c10.34-7.1,20.16-9.29,29.45-6.57c9.29,2.72,18.75,11.08,28.38,25.1
		c9.62,14.02,14.03,25.85,13.23,35.5c-0.8,9.65-6.38,18.02-16.72,25.12c-10.34,7.1-20.14,9.28-29.4,6.54
		c-9.26-2.74-18.7-11.12-28.32-25.13C729.45,867.06,725.06,855.22,725.9,845.54z M774.27,886.63c4.56,2.53,8.96,2.34,13.19-0.56
		c4.23-2.9,6.03-6.97,5.42-12.21c-0.62-5.24-4.21-12.65-10.79-22.23c-6.58-9.58-12.22-15.62-16.91-18.11
		c-4.69-2.49-9.15-2.28-13.38,0.62c-4.23,2.9-6,6.98-5.33,12.22c0.67,5.25,4.3,12.67,10.88,22.25
		C763.93,878.19,769.57,884.2,774.27,886.63z"/>
	<path d="M799.65,771.14l14.56-17.32l71.57,60.17l-14.56,17.32l-53.2-44.72l-0.08,0.1l-2.16,30.35l-18.27-15.36L799.65,771.14z"/>
	<path d="M906.37,707.69l5.79-12.33l15.5,7.28l-5.79,12.33l16.18,7.59l-8.82,18.78l-16.18-7.59l-17.69,37.68l-15.5-7.28
		l-35.27-62.54l8.82-18.78L906.37,707.69z M897.55,726.47l-29.08-13.65l-0.11,0.23l19.46,33.57l0.23,0.11L897.55,726.47z"/>
</g>
<path d="M578.2,996.2c-56.52,0.3-111.42-10.48-163.16-32.05c-49.97-20.83-94.91-50.78-133.56-89.03s-69.08-82.87-90.43-132.62
	c-22.11-51.51-33.47-106.29-33.76-162.81c-0.3-56.52,10.48-111.42,32.05-163.16c20.83-49.97,50.78-94.91,89.03-133.56
	s82.87-69.08,132.62-90.43c51.51-22.11,106.29-33.47,162.81-33.76c56.52-0.3,111.42,10.48,163.16,32.05
	c49.97,20.83,94.91,50.78,133.56,89.03c38.66,38.25,69.08,82.87,90.43,132.62c22.11,51.51,33.47,106.29,33.77,162.81
	c0.3,56.52-10.48,111.42-32.05,163.16c-20.83,49.97-50.78,94.91-89.03,133.56c-38.25,38.66-82.87,69.08-132.62,90.43
	C689.5,984.54,634.72,995.9,578.2,996.2z M573.83,166.77c-55.45,0.29-109.18,11.43-159.7,33.12
	c-48.8,20.94-92.57,50.79-130.09,88.71c-37.52,37.92-66.9,82-87.33,131.02c-21.15,50.74-31.72,104.59-31.43,160.04
	c0.29,55.45,11.43,109.18,33.12,159.7c20.94,48.8,50.79,92.57,88.71,130.09c37.92,37.52,82,66.9,131.02,87.33
	c50.74,21.15,104.59,31.72,160.04,31.43c55.45-0.29,109.18-11.43,159.7-33.12c48.8-20.94,92.57-50.79,130.09-88.71
	c37.52-37.92,66.91-82,87.33-131.02c21.15-50.74,31.72-104.59,31.43-160.04c-0.29-55.45-11.43-109.18-33.12-159.7
	c-20.94-48.8-50.79-92.57-88.71-130.09c-37.92-37.52-82-66.9-131.02-87.33C683.12,177.05,629.28,166.48,573.83,166.77z"/>
<polygon points="236.07,552.85 249.44,579.58 279.04,583.72 257.75,604.69 262.95,634.12 236.43,620.35 210.05,634.4 214.95,604.92 
	193.44,584.17 222.99,579.72 "/>
<polygon points="920.07,549.25 933.43,575.98 963.03,580.12 941.74,601.09 946.94,630.51 920.42,616.75 894.04,630.79 
	898.94,601.31 877.43,580.57 906.98,576.12 "/>
<g>
	<path d="M248.19,419.18l-0.09,0.23l56.12,36.25l-8.36,20.62l-65.46-13.2l-0.09,0.23l59.12,28.83l-7.89,19.46l-82.7-44.87
		l9.77-24.09l70.98,14.89l0.09-0.23l-61.26-38.87l9.72-23.98l90.59,25.41l-8.08,19.92L248.19,419.18z"/>
	<path d="M375.57,340.06c0.69,11.54-3.65,22.17-13.01,31.89c-9.36,9.72-19.83,14.46-31.38,14.21c-11.56-0.25-22.74-5.58-33.54-15.99
		c-10.81-10.4-16.55-21.38-17.24-32.92c-0.69-11.54,3.65-22.17,13.01-31.89c9.36-9.72,19.82-14.46,31.38-14.21
		c11.56,0.25,22.74,5.58,33.54,15.99C369.13,317.55,374.88,328.52,375.57,340.06z M342.89,323.17
		c-14.41-13.87-26.58-15.65-36.52-5.32c-9.94,10.33-7.69,22.44,6.74,36.34c14.44,13.9,26.63,15.69,36.57,5.37
		C359.62,349.23,357.36,337.1,342.89,323.17z"/>
	<path d="M415.31,324.39l-40.33-84.35l18.83-9l51.93,38.77l0.23-0.11l-24.75-51.76l18.83-9l40.33,84.35l-18.83,9l-51.93-38.77
		l-0.23,0.11l24.75,51.76L415.31,324.39z"/>
	<path d="M506.07,285.15l21.34-95.93l23.02-2.17l38.9,90.25l-23.02,2.17l-7-19.68l-27.5,2.59l-3.2,20.64L506.07,285.15z
		 M534.23,245.58l19.41-1.83l-13.14-36.8l-0.25,0.02L534.23,245.58z"/>
	<path d="M644.27,239.56c-2.34,9.46-1.91,17.36,1.29,23.69c3.2,6.33,8.52,10.41,15.96,12.25c6.63,1.64,14.08,2.06,22.35,1.28
		l-4.44,17.96c-7.98,0-16.18-1.04-24.6-3.12c-13.59-3.36-23.28-10-29.06-19.93s-6.82-22.42-3.1-37.46
		c3.64-14.72,10.23-25.24,19.78-31.55c9.54-6.31,21.07-7.8,34.58-4.46c8.74,2.16,16.38,5.08,22.94,8.76l-4.47,18.08
		c-7.05-4.49-13.77-7.52-20.16-9.1c-7.52-1.86-13.99-0.8-19.39,3.19C650.54,223.13,646.65,229.93,644.27,239.56z"/>
	<path d="M774.55,338.4c-11.24,2.7-22.47,0.28-33.68-7.23c-11.21-7.52-17.7-16.99-19.47-28.41c-1.77-11.42,1.52-23.36,9.88-35.82
		c8.36-12.46,18.15-20.04,29.39-22.73c11.24-2.7,22.47-0.29,33.68,7.23c11.21,7.52,17.7,16.99,19.48,28.41
		c1.77,11.42-1.52,23.36-9.88,35.82C795.58,328.13,785.79,335.7,774.55,338.4z M785.46,303.28c11.14-16.61,10.76-28.91-1.15-36.89
		c-11.9-7.98-23.44-3.65-34.6,12.99c-11.16,16.65-10.79,28.96,1.11,36.94C762.73,324.3,774.27,319.96,785.46,303.28z"/>
	<path d="M799.5,380.57l72.53-59.01l15.07,18.52l-72.53,59.01L799.5,380.57z"/>
	<path d="M837.77,431.17l86.49-35.51l7.93,19.31l-41.63,49.66l0.09,0.23l53.08-21.79l7.93,19.31l-86.49,35.51l-7.93-19.31
		l41.63-49.66l-0.1-0.23l-53.08,21.79L837.77,431.17z"/>
</g>
<path d="M577.97,809.98c-58.22,0.31-113.11-18-154.58-51.56c-41.9-33.91-65.12-79.3-65.37-127.8
	c-0.24-45.27,19.84-88.51,56.61-122.03c7.85-42.32,24.34-124.08,24.51-124.91l3.42-16.93l10.04,14.06
	c1.54,2.16,35.85,50.24,53.46,77.96c22.49-6.38,46.01-9.68,70.02-9.8c24-0.13,47.56,2.92,70.12,9.06
	c17.31-27.9,51.12-76.34,52.64-78.51l9.89-14.16l3.59,16.89c0.18,0.84,17.53,82.41,25.82,124.65
	c37.11,33.13,57.65,76.16,57.89,121.42c0.26,48.5-22.48,94.13-64.02,128.48C690.89,790.78,636.19,809.67,577.97,809.98z
	 M450.42,403.69c-5.43,27.13-15.97,80.1-21.5,110.13l-0.47,2.54l-1.93,1.71c-34.72,30.85-53.72,70.79-53.5,112.47
	c0.48,91.26,92.38,165.03,204.87,164.43s203.61-75.32,203.13-166.58c-0.22-41.68-19.64-81.42-54.68-111.9l-1.95-1.69l-0.49-2.53
	c-5.85-29.97-16.94-82.83-22.66-109.9c-12.7,18.44-34.39,50.31-45.2,68.29l-2.99,4.98l-5.57-1.66
	c-22.82-6.78-46.82-10.16-71.33-10.03c-24.51,0.13-48.47,3.75-71.22,10.78l-5.55,1.71l-3.05-4.95
	C485.34,453.64,463.31,422,450.42,403.69z"/>
<polygon points="577.42,712.65 512,599.54 524.98,592.03 577.26,682.42 628.6,591.48 641.66,598.86 "/>
<rect x="533.22" y="617.14" transform="matrix(1 -5.267584e-03 5.267584e-03 1 -3.2823 3.0479)" width="87.48" height="15"/>
<polygon points="495.65,565.41 466.85,565.56 438.24,601.71 459.84,601.59 "/>
<polygon points="657.65,564.55 686.44,564.4 715.43,600.25 693.83,600.36 "/>
<g>
	<circle class="st1" cx="1515.99" cy="576.99" r="431.01"/>
	<path d="M1513.71,145.98c238.04-1.25,432.02,190.7,433.28,428.74s-190.7,432.02-428.74,433.28
		c-238.04,1.25-432.02-190.7-433.28-428.74S1275.68,147.23,1513.71,145.98 M1513.64,130.98c-60.2,0.32-118.55,12.42-173.43,35.97
		c-52.99,22.74-100.52,55.15-141.26,96.32s-72.65,89.04-94.83,142.27c-22.97,55.12-34.46,113.59-34.14,173.8
		c0.32,60.2,12.42,118.55,35.97,173.43c22.74,52.99,55.15,100.52,96.32,141.26c41.17,40.74,89.04,72.65,142.27,94.83
		c55.12,22.97,113.59,34.46,173.8,34.14s118.55-12.42,173.43-35.97c52.99-22.74,100.52-55.15,141.26-96.32
		c40.74-41.17,72.65-89.04,94.83-142.27c22.97-55.12,34.46-113.59,34.14-173.8c-0.32-60.2-12.42-118.55-35.97-173.43
		c-22.74-52.99-55.15-100.52-96.32-141.26c-41.17-40.74-89.04-72.65-142.27-94.83C1632.31,142.15,1573.84,130.66,1513.64,130.98
		L1513.64,130.98z"/>
</g>
<path d="M1517.45,854.58c-74.15,0.39-144.01-28.12-196.72-80.27c-52.71-52.15-81.95-121.71-82.34-195.86
	c-0.39-74.15,28.12-144.01,80.27-196.72c52.15-52.71,121.71-81.95,195.86-82.34c74.15-0.39,144.01,28.12,196.72,80.27
	c52.71,52.15,81.95,121.71,82.34,195.86c0.39,74.15-28.12,144.01-80.27,196.72C1661.15,824.95,1591.6,854.19,1517.45,854.58z
	 M1514.57,307.39c-72.01,0.38-139.57,28.78-190.22,79.97c-50.65,51.19-78.34,119.04-77.96,191.05
	c0.38,72.01,28.78,139.57,79.97,190.22c51.19,50.65,119.04,78.34,191.05,77.96s139.57-28.78,190.22-79.97s78.34-119.04,77.96-191.05
	c-0.38-72.01-28.78-139.57-79.97-190.22C1654.43,334.7,1586.58,307.01,1514.57,307.39z"/>
<g>
	<path d="M1241.45,740.11c0.21-9.99-1.62-19.04-5.51-27.16c-3.42-7.14-7.91-9.38-13.47-6.72c-4.74,2.26-6.61,6.95-5.61,14.05
		c1.87,12.22,1.63,21.41-0.73,27.58c-2.37,6.17-7.04,10.92-14.03,14.26c-16.54,7.91-29.79,1.46-39.75-19.37
		c-4.28-8.95-6.1-17.87-5.46-26.76l16.69-7.98c-1.44,9.55-0.26,18.28,3.51,26.17c1.98,4.13,4.26,6.88,6.85,8.23
		c2.58,1.35,5.34,1.32,8.28-0.08c2.56-1.22,4.29-2.95,5.21-5.19c0.91-2.24,1.07-5.43,0.47-9.58c-1.56-11.17-1.08-20.02,1.44-26.53
		c2.52-6.52,7.08-11.36,13.7-14.52c7.22-3.45,14.13-3.67,20.75-0.64c6.62,3.02,12.17,9.23,16.67,18.63c4.68,9.77,7.2,19,7.57,27.7
		L1241.45,740.11z"/>
	<path d="M1204.78,811.11l72.93-58.51l14.94,18.62l-72.93,58.51L1204.78,811.11z"/>
	<path d="M1254.91,867.92l55.82-75.01l16.75,12.46l-10.09,64.01l0.2,0.15l34.25-46.03l16.75,12.46l-55.82,75.01l-16.75-12.46
		l10.09-64.01l-0.2-0.15l-34.25,46.03L1254.91,867.92z"/>
	<path d="M1394.15,897.55c-3.06,9.26-3.24,17.17-0.53,23.72c2.71,6.55,7.7,11.03,14.98,13.44c6.49,2.14,13.88,3.14,22.18,2.98
		l-5.8,17.57c-7.96-0.61-16.06-2.28-24.29-5c-13.29-4.39-22.44-11.76-27.45-22.1c-5.01-10.34-5.08-22.87-0.22-37.59
		c4.76-14.4,12.14-24.38,22.14-29.94c10-5.56,21.6-6.16,34.82-1.79c8.54,2.82,15.95,6.32,22.2,10.5l-5.84,17.68
		c-6.68-5.01-13.15-8.56-19.4-10.62c-7.36-2.43-13.89-1.87-19.58,1.69C1401.67,881.65,1397.27,888.14,1394.15,897.55z"/>
	<path d="M1501.05,890.12l-0.45,19l35.37,0.83l-0.39,16.5l-35.37-0.83l-0.54,22.87l37.87,0.89l-0.41,17.5l-59.61-1.4l2.2-93.47
		l59.61,1.4l-0.41,17.62L1501.05,890.12z"/>
	<path d="M1621.13,933.44l0.07,0.24l33.85-10.27l5.08,16.75l-61.25,18.57l-5.08-16.75c12.36-17.24,20.17-29.67,23.44-37.28
		c3.27-7.61,4.03-14.28,2.29-20.03c-2.27-7.49-7.6-9.97-15.97-7.43c-6.7,2.03-14.38,6.84-23.05,14.43l-5.77-19.02
		c7.81-6.11,16.7-10.68,26.67-13.7c9.89-3,18.22-2.95,24.99,0.13c6.77,3.09,11.41,8.78,13.93,17.07c2.2,7.26,2.02,14.84-0.54,22.76
		C1637.22,906.84,1631,918.35,1621.13,933.44z"/>
	<path d="M1665.89,845.05c0.7-9.58,6.22-17.92,16.56-25.02c10.34-7.1,20.16-9.29,29.45-6.57c9.29,2.72,18.75,11.08,28.38,25.1
		c9.62,14.02,14.03,25.85,13.23,35.5c-0.8,9.65-6.38,18.02-16.71,25.12c-10.34,7.1-20.14,9.28-29.4,6.54
		c-9.26-2.74-18.7-11.12-28.32-25.13C1669.45,866.57,1665.05,854.72,1665.89,845.05z M1714.27,886.13
		c4.56,2.53,8.96,2.34,13.18-0.56c4.23-2.9,6.03-6.97,5.42-12.21c-0.62-5.24-4.21-12.65-10.79-22.23
		c-6.58-9.58-12.22-15.62-16.91-18.11c-4.69-2.49-9.15-2.28-13.38,0.62c-4.22,2.9-6,6.98-5.33,12.22
		c0.67,5.25,4.3,12.67,10.88,22.25C1703.92,877.69,1709.56,883.7,1714.27,886.13z"/>
	<path d="M1739.64,770.65l14.56-17.32l71.57,60.17l-14.56,17.32l-53.2-44.72l-0.08,0.1l-2.17,30.35l-18.27-15.36L1739.64,770.65z"/>
	<path d="M1846.36,707.19l5.79-12.33l15.5,7.28l-5.79,12.33l16.18,7.59l-8.82,18.78l-16.18-7.59l-17.69,37.68l-15.5-7.28
		l-35.27-62.54l8.82-18.78L1846.36,707.19z M1837.55,725.97l-29.08-13.65l-0.11,0.23l19.46,33.57l0.23,0.11L1837.55,725.97z"/>
</g>
<path d="M1518.19,995.7c-56.52,0.3-111.42-10.48-163.16-32.05c-49.97-20.83-94.91-50.78-133.56-89.03
	c-38.66-38.25-69.08-82.87-90.43-132.62c-22.11-51.51-33.47-106.29-33.77-162.81c-0.3-56.52,10.48-111.42,32.05-163.16
	c20.83-49.97,50.78-94.91,89.03-133.56c38.25-38.66,82.87-69.08,132.62-90.43c51.51-22.11,106.29-33.47,162.81-33.76
	c56.52-0.3,111.42,10.48,163.16,32.05c49.97,20.83,94.91,50.78,133.56,89.03s69.08,82.87,90.43,132.62
	c22.11,51.51,33.47,106.29,33.77,162.81c0.3,56.52-10.48,111.42-32.05,163.16c-20.83,49.97-50.78,94.91-89.03,133.56
	c-38.25,38.66-82.87,69.08-132.62,90.43C1629.49,984.04,1574.72,995.4,1518.19,995.7z M1513.82,166.27
	c-55.45,0.29-109.18,11.43-159.7,33.12c-48.8,20.94-92.57,50.79-130.09,88.71c-37.52,37.92-66.9,82-87.33,131.02
	c-21.15,50.74-31.72,104.59-31.43,160.04c0.29,55.45,11.43,109.18,33.12,159.7c20.94,48.8,50.79,92.57,88.71,130.09
	c37.92,37.52,82,66.9,131.02,87.33c50.74,21.15,104.59,31.72,160.04,31.43c55.45-0.29,109.18-11.43,159.7-33.12
	c48.8-20.94,92.57-50.79,130.09-88.71c37.52-37.92,66.9-82,87.33-131.02c21.15-50.74,31.72-104.59,31.43-160.04
	c-0.29-55.45-11.43-109.18-33.12-159.7c-20.94-48.8-50.79-92.57-88.71-130.09c-37.92-37.52-82-66.9-131.02-87.33
	C1623.11,176.55,1569.27,165.98,1513.82,166.27z"/>
<polygon points="1176.07,552.36 1189.43,579.08 1219.03,583.22 1197.74,604.2 1202.95,633.62 1176.42,619.85 1150.05,633.9 
	1154.94,604.42 1133.43,583.67 1162.98,579.22 "/>
<polygon points="1860.06,548.75 1873.42,575.48 1903.02,579.62 1881.73,600.59 1886.94,630.02 1860.41,616.25 1834.04,630.3 
	1838.93,600.82 1817.43,580.07 1846.97,575.62 "/>
<g>
	<path d="M1188.19,418.68l-0.09,0.23l56.12,36.25l-8.36,20.62l-65.46-13.2l-0.09,0.23l59.12,28.83l-7.89,19.46l-82.7-44.87
		l9.77-24.09l70.98,14.89l0.09-0.23l-61.26-38.87l9.72-23.98l90.59,25.41l-8.08,19.92L1188.19,418.68z"/>
	<path d="M1315.56,339.56c0.69,11.54-3.65,22.17-13.01,31.89c-9.36,9.72-19.82,14.46-31.38,14.21
		c-11.56-0.25-22.74-5.58-33.54-15.99s-16.55-21.38-17.24-32.92c-0.69-11.54,3.65-22.17,13.01-31.89
		c9.36-9.72,19.82-14.46,31.38-14.21c11.55,0.25,22.74,5.58,33.54,15.99C1309.12,317.05,1314.87,328.03,1315.56,339.56z
		 M1282.89,322.68c-14.41-13.87-26.58-15.65-36.52-5.32c-9.94,10.33-7.69,22.44,6.74,36.34c14.44,13.9,26.62,15.69,36.57,5.37
		C1299.61,348.74,1297.35,336.61,1282.89,322.68z"/>
	<path d="M1355.3,323.89l-40.33-84.35l18.83-9l51.93,38.77l0.23-0.11l-24.75-51.76l18.83-9l40.33,84.35l-18.83,9l-51.93-38.77
		l-0.22,0.11l24.75,51.76L1355.3,323.89z"/>
	<path d="M1446.06,284.65l21.34-95.93l23.02-2.17l38.9,90.25l-23.02,2.17l-7-19.68l-27.5,2.59l-3.2,20.64L1446.06,284.65z
		 M1474.22,245.08l19.41-1.83l-13.14-36.8l-0.25,0.02L1474.22,245.08z"/>
	<path d="M1584.27,239.06c-2.34,9.46-1.91,17.36,1.29,23.69c3.2,6.33,8.52,10.41,15.96,12.25c6.63,1.64,14.08,2.06,22.35,1.28
		l-4.44,17.96c-7.98,0-16.18-1.04-24.59-3.12c-13.59-3.36-23.28-10-29.07-19.93c-5.79-9.93-6.82-22.42-3.1-37.46
		c3.64-14.72,10.23-25.24,19.78-31.55c9.54-6.31,21.07-7.8,34.58-4.46c8.74,2.16,16.38,5.08,22.94,8.76l-4.47,18.08
		c-7.05-4.49-13.76-7.52-20.15-9.1c-7.52-1.86-13.99-0.8-19.4,3.19C1590.54,222.63,1586.65,229.44,1584.27,239.06z"/>
	<path d="M1714.54,337.9c-11.24,2.7-22.47,0.28-33.68-7.23c-11.21-7.52-17.7-16.99-19.47-28.41c-1.77-11.42,1.52-23.36,9.88-35.82
		c8.36-12.46,18.15-20.04,29.39-22.73c11.24-2.7,22.47-0.29,33.68,7.23c11.21,7.52,17.7,16.99,19.48,28.41
		c1.77,11.42-1.52,23.36-9.88,35.82C1735.58,327.63,1725.78,335.21,1714.54,337.9z M1725.45,302.78
		c11.14-16.61,10.76-28.91-1.15-36.89c-11.9-7.98-23.44-3.65-34.6,12.99c-11.16,16.65-10.79,28.96,1.11,36.94
		C1702.72,323.81,1714.27,319.46,1725.45,302.78z"/>
	<path d="M1739.49,380.07l72.53-59.01l15.07,18.52l-72.53,59.01L1739.49,380.07z"/>
	<path d="M1777.77,430.67l86.49-35.51l7.93,19.31l-41.63,49.66l0.09,0.23l53.08-21.79l7.93,19.31l-86.49,35.51l-7.93-19.31
		l41.63-49.66l-0.1-0.23l-53.08,21.79L1777.77,430.67z"/>
</g>
<g>
	<path class="st0" d="M1671.25,510.33c-8.16-41.84-26.29-127.03-26.29-127.03s-39.28,56.24-55.36,82.99
		c-22.92-6.81-47.68-10.47-73.5-10.34c-25.83,0.14-50.55,4.06-73.39,11.11c-16.36-26.58-56.23-82.41-56.23-82.41
		s-17.23,85.38-24.95,127.3c-34.97,31.07-56.26,72.6-56.02,118.12c0.5,95.55,95.6,172.51,212.41,171.9
		c116.81-0.62,211.09-78.57,210.59-174.12C1728.27,582.33,1706.55,541.04,1671.25,510.33z"/>
	<path d="M1517.96,809.48c-58.22,0.31-113.11-18-154.58-51.56c-41.9-33.91-65.12-79.3-65.37-127.8
		c-0.24-45.27,19.84-88.51,56.61-122.03c7.85-42.32,24.34-124.08,24.51-124.91l3.42-16.93l10.04,14.06
		c1.54,2.15,35.85,50.24,53.46,77.96c22.49-6.38,46.01-9.68,70.02-9.8s47.56,2.92,70.12,9.06c17.31-27.9,51.12-76.34,52.64-78.51
		l9.89-14.16l3.59,16.89c0.18,0.84,17.53,82.41,25.82,124.65c37.11,33.13,57.65,76.16,57.89,121.42
		c0.26,48.5-22.48,94.13-64.02,128.48C1630.88,790.28,1576.18,809.17,1517.96,809.48z M1390.41,403.19
		c-5.43,27.13-15.97,80.1-21.5,110.13l-0.47,2.54l-1.93,1.71c-34.72,30.85-53.72,70.79-53.5,112.47
		c0.48,91.26,92.38,165.03,204.87,164.43s203.61-75.32,203.13-166.58c-0.22-41.68-19.64-81.42-54.68-111.9l-1.95-1.69l-0.49-2.53
		c-5.84-29.97-16.94-82.83-22.66-109.9c-12.7,18.44-34.39,50.31-45.2,68.29l-2.99,4.98l-5.57-1.66
		c-22.82-6.78-46.82-10.16-71.33-10.03c-24.51,0.13-48.47,3.75-71.22,10.78l-5.55,1.71l-3.05-4.95
		C1425.33,453.14,1403.3,421.5,1390.41,403.19z"/>
</g>
<polygon points="1517.42,712.16 1451.99,599.04 1464.97,591.53 1517.26,681.92 1568.59,590.99 1581.65,598.36 "/>
<rect x="1473.21" y="616.64" transform="matrix(1 -5.267584e-03 5.267584e-03 1 -3.2667 7.9993)" width="87.48" height="15"/>
<polygon points="1435.64,564.91 1406.84,565.06 1378.23,601.21 1399.83,601.1 "/>
<polygon points="1597.64,564.06 1626.44,563.9 1655.43,599.75 1633.83,599.87 "/>
<g>
	<circle class="st0" cx="575.99" cy="1508.01" r="431.01"/>
	<path d="M575.99,1077c238.04,0,431.01,192.97,431.01,431.01s-192.97,431.01-431.01,431.01s-431.01-192.97-431.01-431.01
		S337.94,1077,575.99,1077 M575.99,1062c-60.21,0-118.62,11.79-173.61,35.06c-53.11,22.46-100.81,54.62-141.77,95.58
		c-40.96,40.96-73.11,88.65-95.58,141.77c-23.26,55-35.06,113.41-35.06,173.61s11.79,118.62,35.06,173.61
		c22.46,53.11,54.62,100.81,95.58,141.77c40.96,40.96,88.65,73.11,141.77,95.58c55,23.26,113.41,35.06,173.61,35.06
		s118.62-11.79,173.61-35.06c53.11-22.46,100.81-54.62,141.77-95.58c40.96-40.96,73.11-88.65,95.58-141.77
		c23.26-55,35.06-113.41,35.06-173.61s-11.79-118.62-35.06-173.61c-22.46-53.11-54.62-100.81-95.58-141.77
		c-40.96-40.96-88.65-73.11-141.77-95.58C694.6,1073.79,636.19,1062,575.99,1062L575.99,1062z"/>
</g>
<path d="M575.99,1785.61c-74.15,0-143.86-28.88-196.29-81.31s-81.31-122.14-81.31-196.29s28.88-143.86,81.31-196.29
	c52.43-52.43,122.14-81.31,196.29-81.31c74.15,0,143.86,28.88,196.29,81.31c52.43,52.43,81.31,122.14,81.31,196.29
	s-28.88,143.86-81.31,196.29S650.14,1785.61,575.99,1785.61z M575.99,1238.41c-72.01,0-139.72,28.04-190.64,78.96
	c-50.92,50.92-78.96,118.62-78.96,190.64s28.04,139.72,78.96,190.64c50.92,50.92,118.62,78.96,190.64,78.96
	c72.01,0,139.72-28.04,190.64-78.96s78.96-118.62,78.96-190.64s-28.04-139.71-78.96-190.64
	C715.7,1266.46,648,1238.41,575.99,1238.41z"/>
<g>
	<path d="M423.53,1846.91l-0.1,0.23l32.37,14.27l-7.06,16.01l-58.56-25.81l7.06-16.01c20.61-5.03,34.64-9.37,42.07-13.01
		c7.43-3.64,12.36-8.21,14.78-13.7c3.16-7.17,0.74-12.52-7.27-16.04c-6.41-2.82-15.37-4.18-26.89-4.07l8.02-18.19
		c9.91,0.45,19.63,2.78,29.16,6.98c9.45,4.17,15.75,9.63,18.87,16.38c3.12,6.75,2.94,14.09-0.55,22.02
		c-3.06,6.94-8.14,12.58-15.24,16.92C453.07,1837.21,440.85,1841.89,423.53,1846.91z"/>
	<path d="M515.07,1809.01c6.77-6.81,16.39-9.55,28.86-8.2c12.47,1.34,21.35,6.07,26.63,14.19c5.29,8.11,7.02,20.62,5.19,37.52
		c-1.82,16.9-6.18,28.75-13.07,35.55c-6.89,6.8-16.58,9.53-29.04,8.18c-12.47-1.34-21.33-6.07-26.57-14.18
		c-5.25-8.11-6.96-20.61-5.13-37.52C503.76,1827.66,508.14,1815.81,515.07,1809.01z M525.03,1871.69c1.82,4.89,5.28,7.61,10.37,8.16
		c5.1,0.55,9.11-1.36,12.06-5.74c2.94-4.38,5.04-12.34,6.29-23.9c1.25-11.56,0.9-19.81-1.04-24.75c-1.94-4.94-5.46-7.69-10.55-8.24
		c-5.1-0.55-9.1,1.39-12,5.81c-2.91,4.42-4.98,12.41-6.23,23.97C522.68,1858.55,523.05,1866.78,525.03,1871.69z"/>
	<path d="M619.5,1800.64l22.33-3.64l15.03,92.28l-22.33,3.64l-11.17-68.6l-0.12,0.02l-21.43,21.6l-3.84-23.56L619.5,1800.64z"/>
	<path d="M703.59,1857.7c7.07-0.54,13.83-2.27,20.29-5.18c5.92-2.67,9.8-6.43,11.64-11.29c1.83-4.85,1.46-10.63-1.1-17.33
		l-0.39,0.04c-2.86,5.41-7.86,9.72-15,12.94c-9.27,4.18-17.49,4.9-24.67,2.16c-7.18-2.74-12.92-8.86-17.2-18.36
		c-4.05-8.96-4.31-17.39-0.79-25.29c3.52-7.9,10.33-14.13,20.43-18.69c10.48-4.73,20.01-5.24,28.59-1.52
		c8.58,3.72,15.65,11.72,21.2,24.03c15.09,33.42,9.91,55.87-15.54,67.36c-6.38,2.88-13.22,5.05-20.51,6.52L703.59,1857.7z
		 M703.27,1791.06c-4.33,1.96-7.13,4.77-8.39,8.45c-1.27,3.68-0.89,7.76,1.14,12.24c2.44,5.39,5.47,8.92,9.09,10.57
		c3.63,1.65,7.64,1.49,12.05-0.5c4.25-1.92,6.98-4.84,8.18-8.77c1.2-3.92,0.62-8.51-1.75-13.75c-1.95-4.33-4.82-7.24-8.61-8.73
		C711.2,1789.08,707.29,1789.24,703.27,1791.06z"/>
</g>
<path d="M575.99,1926.73c-56.53,0-111.36-11.07-162.99-32.91c-49.86-21.09-94.64-51.28-133.09-89.73s-68.64-83.23-89.73-133.09
	c-21.84-51.62-32.91-106.46-32.91-162.99s11.07-111.36,32.91-162.99c21.09-49.86,51.28-94.64,89.73-133.09s83.23-68.64,133.09-89.73
	c51.62-21.84,106.46-32.91,162.99-32.91c56.52,0,111.36,11.07,162.99,32.91c49.86,21.09,94.64,51.28,133.09,89.73
	c38.45,38.45,68.64,83.23,89.73,133.09c21.84,51.62,32.91,106.46,32.91,162.99S983.63,1619.38,961.8,1671
	c-21.09,49.86-51.28,94.64-89.73,133.09c-38.45,38.45-83.23,68.64-133.09,89.73C687.35,1915.66,632.51,1926.73,575.99,1926.73z
	 M575.99,1097.29c-55.45,0-109.24,10.86-159.87,32.27c-48.91,20.69-92.83,50.3-130.55,88.02c-37.72,37.72-67.34,81.65-88.02,130.55
	c-21.42,50.63-32.27,104.42-32.27,159.87c0,55.45,10.86,109.24,32.27,159.87c20.69,48.91,50.3,92.83,88.02,130.55
	c37.72,37.72,81.65,67.34,130.55,88.02c50.63,21.42,104.42,32.27,159.87,32.27s109.24-10.86,159.87-32.27
	c48.91-20.69,92.83-50.3,130.55-88.02c37.72-37.72,67.34-81.65,88.02-130.55c21.42-50.63,32.27-104.42,32.27-159.87
	c0-55.45-10.86-109.24-32.27-159.87c-20.69-48.91-50.3-92.83-88.02-130.55c-37.72-37.72-81.65-67.34-130.55-88.02
	C685.22,1108.15,631.43,1097.29,575.99,1097.29z"/>
<polygon points="236.2,1481.59 249.43,1508.39 279,1512.69 257.6,1533.55 262.65,1563 236.2,1549.09 209.75,1563 214.8,1533.55 
	193.4,1512.69 222.98,1508.39 "/>
<polygon points="248,1599.35 269.59,1620 298.85,1613.93 285.87,1640.85 300.69,1666.8 271.08,1662.78 250.98,1684.89 
	245.66,1655.48 218.41,1643.2 244.73,1629.05 "/>
<polygon points="299.35,1705.96 326.71,1717.99 352.12,1702.27 349.14,1732.01 371.94,1751.32 342.74,1757.67 331.42,1785.32 
	316.35,1759.52 286.55,1757.29 306.44,1734.99 "/>
<polygon points="920.2,1481.59 933.43,1508.39 963,1512.69 941.6,1533.55 946.65,1563 920.2,1549.09 893.75,1563 898.8,1533.55 
	877.4,1512.69 906.98,1508.39 "/>
<polygon points="908.14,1600.85 911.41,1630.56 937.73,1644.71 910.48,1656.99 905.16,1686.4 885.06,1664.28 855.45,1668.3 
	870.27,1642.35 857.29,1615.43 886.55,1621.51 "/>
<polygon points="856.02,1708.79 848.93,1737.82 868.82,1760.12 839.02,1762.35 823.96,1788.16 812.64,1760.5 783.43,1754.15 
	806.24,1734.84 803.25,1705.1 828.67,1720.82 "/>
<g>
	<path d="M248.97,1347.97l-0.1,0.23l55.92,36.54l-8.47,20.57l-65.39-13.54l-0.09,0.23l58.97,29.15l-8,19.42l-82.46-45.31l9.9-24.04
		l70.9,15.27l0.1-0.23l-61.05-39.19l9.85-23.93l90.46,25.89l-8.19,19.88L248.97,1347.97z"/>
	<path d="M376.76,1269.53c0.63,11.54-3.77,22.15-13.18,31.83c-9.42,9.67-19.9,14.36-31.45,14.04c-11.56-0.31-22.71-5.7-33.46-16.16
		c-10.75-10.46-16.44-21.46-17.07-33.01c-0.63-11.54,3.77-22.15,13.18-31.83c9.42-9.67,19.9-14.35,31.46-14.04
		c11.55,0.32,22.71,5.7,33.46,16.16C370.45,1246.98,376.13,1257.99,376.76,1269.53z M344.18,1252.47
		c-14.33-13.95-26.5-15.79-36.49-5.52c-10,10.27-7.81,22.4,6.55,36.38c14.36,13.98,26.54,15.83,36.54,5.56
		C360.77,1278.62,358.57,1266.48,344.18,1252.47z"/>
	<path d="M416.59,1254.07l-39.89-84.57l18.88-8.91l51.72,39.04l0.23-0.11l-24.48-51.89l18.88-8.91l39.89,84.56l-18.88,8.91
		l-51.72-39.04l-0.23,0.11l24.48,51.89L416.59,1254.07z"/>
	<path d="M507.55,1215.31l21.84-95.81l23.03-2.05l38.42,90.45l-23.03,2.05l-6.9-19.72l-27.52,2.45l-3.31,20.62L507.55,1215.31z
		 M535.92,1175.89l19.42-1.73l-12.94-36.87l-0.25,0.02L535.92,1175.89z"/>
	<path d="M645.99,1170.44c-2.39,9.45-2,17.35,1.17,23.7s8.46,10.46,15.9,12.34c6.62,1.67,14.07,2.14,22.34,1.39l-4.53,17.94
		c-7.98-0.04-16.18-1.12-24.58-3.25c-13.57-3.43-23.23-10.13-28.96-20.09s-6.7-22.45-2.9-37.48c3.72-14.7,10.36-25.18,19.94-31.45
		c9.58-6.26,21.11-7.69,34.6-4.27c8.73,2.21,16.36,5.17,22.9,8.88l-4.57,18.06c-7.02-4.53-13.72-7.6-20.11-9.21
		c-7.51-1.9-13.98-0.87-19.41,3.09C652.35,1154.04,648.42,1160.83,645.99,1170.44z"/>
	<path d="M775.74,1269.97c-11.25,2.64-22.47,0.17-33.64-7.41c-11.17-7.58-17.61-17.08-19.32-28.51
		c-1.71-11.43,1.64-23.35,10.06-35.77c8.42-12.41,18.26-19.94,29.51-22.58c11.25-2.64,22.47-0.17,33.64,7.41
		c11.17,7.58,17.61,17.08,19.32,28.52c1.71,11.43-1.64,23.35-10.06,35.77C796.84,1259.81,787,1267.33,775.74,1269.97z
		 M786.84,1234.91c11.23-16.55,10.91-28.85-0.95-36.9c-11.86-8.05-23.42-3.78-34.67,12.81c-11.25,16.59-10.95,28.9,0.92,36.95
		C764,1255.81,775.57,1251.53,786.84,1234.91z"/>
	<path d="M800.47,1312.27l72.84-58.63l14.97,18.6l-72.84,58.63L800.47,1312.27z"/>
	<path d="M838.48,1363.07l86.68-35.06l7.83,19.35l-41.89,49.44l0.09,0.23l53.19-21.51l7.83,19.35l-86.68,35.06l-7.83-19.35
		l41.89-49.44l-0.09-0.23l-53.19,21.51L838.48,1363.07z"/>
</g>
<path d="M577.97,1740.51c-58.22,0.31-113.11-18-154.58-51.56c-41.9-33.91-65.12-79.3-65.37-127.8
	c-0.24-45.27,19.84-88.51,56.61-122.03c7.85-42.32,24.34-124.08,24.51-124.91l3.42-16.93l10.04,14.06
	c1.54,2.16,35.85,50.24,53.46,77.96c22.49-6.38,46.01-9.68,70.02-9.8c24-0.13,47.56,2.92,70.12,9.06
	c17.31-27.9,51.12-76.34,52.64-78.51l9.89-14.16l3.59,16.89c0.18,0.84,17.53,82.41,25.82,124.65
	c37.11,33.13,57.65,76.16,57.89,121.42c0.26,48.5-22.48,94.13-64.02,128.48C690.89,1721.31,636.19,1740.2,577.97,1740.51z
	 M450.42,1334.22c-5.43,27.13-15.97,80.1-21.5,110.13l-0.47,2.54l-1.93,1.71c-34.72,30.85-53.72,70.79-53.5,112.47
	c0.48,91.26,92.38,165.03,204.87,164.43s203.61-75.32,203.13-166.58c-0.22-41.68-19.64-81.42-54.68-111.9l-1.95-1.69l-0.49-2.53
	c-5.85-29.97-16.94-82.83-22.66-109.9c-12.7,18.44-34.39,50.31-45.2,68.29l-2.99,4.98l-5.57-1.66
	c-22.82-6.78-46.82-10.16-71.33-10.03c-24.51,0.13-48.47,3.75-71.22,10.78l-5.55,1.71l-3.05-4.95
	C485.34,1384.17,463.31,1352.53,450.42,1334.22z"/>
<polygon points="577.42,1643.18 512,1530.07 524.98,1522.56 577.26,1612.95 628.6,1522.02 641.66,1529.39 "/>
<rect x="533.22" y="1547.67" transform="matrix(1 -5.267584e-03 5.267584e-03 1 -8.184 3.0608)" width="87.48" height="15"/>
<polygon points="495.65,1495.94 466.85,1496.09 438.24,1532.24 459.84,1532.13 "/>
<polygon points="657.65,1495.08 686.44,1494.93 715.43,1530.78 693.83,1530.89 "/>
<g>
	<circle class="st1" cx="1512.99" cy="1508.01" r="431.01"/>
	<path d="M1512.99,1077c238.04,0,431.01,192.97,431.01,431.01s-192.97,431.01-431.01,431.01s-431.01-192.97-431.01-431.01
		S1274.94,1077,1512.99,1077 M1512.99,1062c-60.2,0-118.62,11.79-173.61,35.06c-53.11,22.46-100.81,54.62-141.77,95.58
		s-73.11,88.65-95.58,141.77c-23.26,55-35.06,113.41-35.06,173.61s11.79,118.62,35.06,173.61c22.46,53.11,54.62,100.81,95.58,141.77
		c40.96,40.96,88.65,73.11,141.77,95.58c55,23.26,113.41,35.06,173.61,35.06s118.62-11.79,173.61-35.06
		c53.11-22.46,100.81-54.62,141.77-95.58c40.96-40.96,73.11-88.65,95.58-141.77c23.26-55,35.06-113.41,35.06-173.61
		s-11.79-118.62-35.06-173.61c-22.46-53.11-54.62-100.81-95.58-141.77c-40.96-40.96-88.65-73.11-141.77-95.58
		C1631.6,1073.79,1573.19,1062,1512.99,1062L1512.99,1062z"/>
</g>
<path d="M1512.99,1785.61c-74.15,0-143.86-28.88-196.29-81.31c-52.43-52.43-81.31-122.14-81.31-196.29s28.88-143.86,81.31-196.29
	c52.43-52.43,122.14-81.31,196.29-81.31s143.86,28.88,196.29,81.31c52.43,52.43,81.31,122.14,81.31,196.29
	s-28.88,143.86-81.31,196.29S1587.13,1785.61,1512.99,1785.61z M1512.99,1238.41c-72.01,0-139.71,28.04-190.64,78.96
	s-78.96,118.62-78.96,190.64s28.04,139.72,78.96,190.64s118.62,78.96,190.64,78.96s139.72-28.04,190.64-78.96
	s78.96-118.62,78.96-190.64s-28.04-139.71-78.96-190.64S1585,1238.41,1512.99,1238.41z"/>
<g>
	<path d="M1360.53,1846.91l-0.1,0.23l32.37,14.27l-7.06,16.01l-58.56-25.81l7.06-16.01c20.61-5.03,34.64-9.37,42.07-13.01
		c7.43-3.64,12.36-8.21,14.78-13.7c3.16-7.17,0.74-12.52-7.27-16.04c-6.41-2.82-15.37-4.18-26.89-4.07l8.02-18.19
		c9.91,0.45,19.63,2.78,29.16,6.98c9.46,4.17,15.75,9.63,18.87,16.38c3.12,6.75,2.94,14.09-0.55,22.02
		c-3.06,6.94-8.14,12.58-15.24,16.92C1390.07,1837.21,1377.86,1841.89,1360.53,1846.91z"/>
	<path d="M1452.07,1809.01c6.77-6.81,16.39-9.55,28.86-8.2c12.47,1.34,21.35,6.07,26.63,14.19c5.29,8.11,7.02,20.62,5.2,37.52
		c-1.82,16.9-6.18,28.75-13.07,35.55c-6.89,6.8-16.58,9.53-29.04,8.18c-12.47-1.34-21.33-6.07-26.57-14.18
		c-5.25-8.11-6.96-20.61-5.13-37.52S1445.14,1815.81,1452.07,1809.01z M1462.04,1871.69c1.82,4.89,5.28,7.61,10.37,8.16
		c5.09,0.55,9.11-1.36,12.06-5.74c2.94-4.38,5.04-12.34,6.29-23.9c1.25-11.56,0.9-19.81-1.04-24.75c-1.94-4.94-5.46-7.69-10.55-8.24
		c-5.09-0.55-9.1,1.39-12,5.81c-2.91,4.42-4.98,12.41-6.23,23.97C1459.68,1858.55,1460.05,1866.78,1462.04,1871.69z"/>
	<path d="M1556.5,1800.64l22.33-3.64l15.03,92.28l-22.33,3.64l-11.17-68.6l-0.12,0.02l-21.43,21.6l-3.84-23.56L1556.5,1800.64z"/>
	<path d="M1640.59,1857.7c7.07-0.54,13.83-2.27,20.29-5.18c5.92-2.67,9.8-6.43,11.64-11.29c1.83-4.85,1.46-10.63-1.1-17.33
		l-0.39,0.04c-2.86,5.41-7.87,9.72-15,12.94c-9.27,4.18-17.49,4.9-24.67,2.16c-7.18-2.74-12.92-8.86-17.2-18.36
		c-4.05-8.96-4.31-17.39-0.79-25.29c3.52-7.9,10.33-14.13,20.43-18.69c10.48-4.73,20.01-5.24,28.59-1.52
		c8.58,3.72,15.65,11.72,21.2,24.03c15.09,33.42,9.91,55.87-15.54,67.36c-6.38,2.88-13.22,5.05-20.51,6.52L1640.59,1857.7z
		 M1640.27,1791.06c-4.33,1.96-7.13,4.77-8.39,8.45c-1.27,3.68-0.89,7.76,1.14,12.24c2.43,5.39,5.46,8.92,9.09,10.57
		s7.64,1.49,12.05-0.5c4.25-1.92,6.98-4.84,8.18-8.77c1.2-3.92,0.62-8.51-1.75-13.75c-1.95-4.33-4.82-7.24-8.61-8.73
		C1648.2,1789.08,1644.29,1789.24,1640.27,1791.06z"/>
</g>
<path d="M1512.99,1926.73c-56.53,0-111.36-11.07-162.99-32.91c-49.86-21.09-94.64-51.28-133.09-89.73s-68.64-83.23-89.73-133.09
	c-21.84-51.62-32.91-106.46-32.91-162.99s11.07-111.36,32.91-162.99c21.09-49.86,51.28-94.64,89.73-133.09s83.23-68.64,133.09-89.73
	c51.62-21.84,106.46-32.91,162.99-32.91s111.36,11.07,162.99,32.91c49.86,21.09,94.64,51.28,133.09,89.73s68.64,83.23,89.73,133.09
	c21.84,51.62,32.91,106.46,32.91,162.99s-11.07,111.36-32.91,162.99c-21.09,49.86-51.28,94.64-89.73,133.09
	s-83.23,68.64-133.09,89.73C1624.35,1915.66,1569.51,1926.73,1512.99,1926.73z M1512.99,1097.29c-55.45,0-109.24,10.86-159.87,32.27
	c-48.91,20.69-92.83,50.3-130.55,88.02c-37.72,37.72-67.34,81.65-88.02,130.55c-21.42,50.63-32.27,104.42-32.27,159.87
	c0,55.45,10.86,109.24,32.27,159.87c20.69,48.91,50.3,92.83,88.02,130.55c37.72,37.72,81.65,67.34,130.55,88.02
	c50.63,21.42,104.42,32.27,159.87,32.27c55.45,0,109.24-10.86,159.87-32.27c48.91-20.69,92.83-50.3,130.55-88.02
	c37.72-37.72,67.34-81.65,88.02-130.55c21.42-50.63,32.27-104.42,32.27-159.87c0-55.45-10.86-109.24-32.27-159.87
	c-20.69-48.91-50.3-92.83-88.02-130.55c-37.72-37.72-81.65-67.34-130.55-88.02C1622.22,1108.15,1568.43,1097.29,1512.99,1097.29z"/>
<polygon points="1173.2,1481.59 1186.43,1508.39 1216,1512.69 1194.6,1533.55 1199.65,1563 1173.2,1549.09 1146.75,1563 
	1151.8,1533.55 1130.4,1512.69 1159.98,1508.39 "/>
<polygon points="1185,1599.35 1206.59,1620 1235.85,1613.93 1222.87,1640.85 1237.69,1666.8 1208.08,1662.78 1187.98,1684.89 
	1182.66,1655.48 1155.41,1643.2 1181.73,1629.05 "/>
<polygon points="1236.35,1705.96 1263.71,1717.99 1289.12,1702.27 1286.14,1732.01 1308.94,1751.32 1279.74,1757.67 
	1268.42,1785.32 1253.35,1759.52 1223.55,1757.29 1243.44,1734.99 "/>
<polygon points="1857.2,1481.59 1870.43,1508.39 1900,1512.69 1878.6,1533.55 1883.65,1563 1857.2,1549.09 1830.75,1563 
	1835.8,1533.55 1814.4,1512.69 1843.98,1508.39 "/>
<polygon points="1845.14,1600.85 1848.41,1630.56 1874.73,1644.71 1847.48,1656.99 1842.16,1686.4 1822.06,1664.28 1792.45,1668.3 
	1807.27,1642.35 1794.29,1615.43 1823.55,1621.51 "/>
<polygon points="1793.02,1708.79 1785.93,1737.82 1805.82,1760.12 1776.02,1762.35 1760.96,1788.16 1749.64,1760.5 1720.43,1754.15 
	1743.24,1734.84 1740.25,1705.1 1765.67,1720.82 "/>
<g>
	<path d="M1185.97,1347.97l-0.1,0.23l55.92,36.54l-8.47,20.57l-65.39-13.54l-0.09,0.23l58.97,29.15l-8,19.42l-82.46-45.31l9.9-24.04
		l70.9,15.27l0.1-0.23l-61.05-39.19l9.85-23.93l90.46,25.89l-8.18,19.88L1185.97,1347.97z"/>
	<path d="M1313.76,1269.53c0.63,11.54-3.76,22.15-13.18,31.83c-9.42,9.67-19.9,14.36-31.45,14.04c-11.56-0.31-22.71-5.7-33.46-16.16
		c-10.75-10.46-16.44-21.46-17.07-33.01c-0.63-11.54,3.76-22.15,13.18-31.83c9.42-9.67,19.9-14.35,31.46-14.04
		c11.55,0.32,22.71,5.7,33.46,16.16C1307.45,1246.98,1313.13,1257.99,1313.76,1269.53z M1281.18,1252.47
		c-14.33-13.95-26.5-15.79-36.49-5.52c-10,10.27-7.81,22.4,6.55,36.38c14.36,13.98,26.54,15.83,36.54,5.56
		C1297.77,1278.62,1295.57,1266.48,1281.18,1252.47z"/>
	<path d="M1353.59,1254.07l-39.89-84.57l18.88-8.91l51.72,39.04l0.23-0.11l-24.48-51.89l18.88-8.91l39.89,84.56l-18.88,8.91
		l-51.72-39.04l-0.23,0.11l24.48,51.89L1353.59,1254.07z"/>
	<path d="M1444.55,1215.31l21.84-95.81l23.03-2.05l38.42,90.45l-23.03,2.05l-6.9-19.72l-27.52,2.45l-3.31,20.62L1444.55,1215.31z
		 M1472.92,1175.89l19.42-1.73l-12.94-36.87l-0.25,0.02L1472.92,1175.89z"/>
	<path d="M1582.99,1170.44c-2.39,9.45-2,17.35,1.17,23.7c3.17,6.34,8.46,10.46,15.9,12.34c6.62,1.67,14.07,2.14,22.34,1.39
		l-4.53,17.94c-7.98-0.04-16.18-1.12-24.58-3.25c-13.57-3.43-23.23-10.13-28.96-20.09c-5.73-9.96-6.7-22.45-2.9-37.48
		c3.72-14.7,10.37-25.18,19.94-31.45c9.58-6.26,21.11-7.69,34.6-4.27c8.73,2.21,16.36,5.17,22.9,8.88l-4.57,18.06
		c-7.02-4.53-13.72-7.6-20.11-9.21c-7.51-1.9-13.98-0.87-19.41,3.09C1589.35,1154.04,1585.42,1160.83,1582.99,1170.44z"/>
	<path d="M1712.74,1269.97c-11.25,2.64-22.47,0.17-33.64-7.41c-11.17-7.58-17.61-17.08-19.32-28.51
		c-1.71-11.43,1.64-23.35,10.06-35.77c8.42-12.41,18.26-19.94,29.51-22.58c11.25-2.64,22.47-0.17,33.64,7.41
		c11.17,7.58,17.61,17.08,19.32,28.52c1.71,11.43-1.64,23.35-10.06,35.77C1733.84,1259.81,1724,1267.33,1712.74,1269.97z
		 M1723.84,1234.91c11.23-16.55,10.91-28.85-0.95-36.9c-11.86-8.05-23.42-3.78-34.67,12.81c-11.25,16.59-10.95,28.9,0.92,36.95
		C1701,1255.81,1712.57,1251.53,1723.84,1234.91z"/>
	<path d="M1737.47,1312.27l72.84-58.63l14.97,18.6l-72.84,58.63L1737.47,1312.27z"/>
	<path d="M1775.48,1363.07l86.68-35.06l7.83,19.35l-41.89,49.44l0.09,0.23l53.19-21.51l7.83,19.35l-86.68,35.06l-7.83-19.35
		l41.89-49.44l-0.09-0.23l-53.19,21.51L1775.48,1363.07z"/>
</g>
<g>
	<path class="st0" d="M1668.24,1441.36c-8.16-41.84-26.29-127.03-26.29-127.03s-39.28,56.24-55.36,82.99
		c-22.92-6.81-47.68-10.47-73.5-10.34c-25.83,0.14-50.55,4.06-73.39,11.11c-16.36-26.58-56.23-82.41-56.23-82.41
		s-17.23,85.38-24.95,127.3c-34.97,31.07-56.26,72.6-56.02,118.12c0.5,95.55,95.6,172.51,212.41,171.9
		c116.81-0.62,211.09-78.57,210.59-174.12C1725.26,1513.36,1703.54,1472.07,1668.24,1441.36z"/>
	<path d="M1514.96,1740.51c-58.22,0.31-113.11-18-154.58-51.56c-41.9-33.91-65.12-79.3-65.37-127.8
		c-0.24-45.27,19.84-88.51,56.61-122.03c7.85-42.32,24.34-124.08,24.51-124.91l3.42-16.93l10.04,14.06
		c1.54,2.16,35.85,50.24,53.46,77.96c22.49-6.38,46.01-9.68,70.02-9.8c24-0.13,47.56,2.92,70.12,9.06
		c17.31-27.9,51.12-76.34,52.64-78.51l9.89-14.16l3.59,16.89c0.18,0.84,17.53,82.41,25.82,124.65
		c37.11,33.13,57.65,76.16,57.89,121.42c0.26,48.5-22.48,94.13-64.02,128.48C1627.88,1721.31,1573.18,1740.2,1514.96,1740.51z
		 M1387.41,1334.22c-5.43,27.13-15.97,80.1-21.5,110.13l-0.47,2.54l-1.93,1.71c-34.72,30.85-53.72,70.79-53.5,112.47
		c0.48,91.26,92.38,165.03,204.87,164.43s203.61-75.32,203.13-166.58c-0.22-41.68-19.64-81.42-54.68-111.9l-1.95-1.69l-0.49-2.53
		c-5.84-29.97-16.94-82.83-22.66-109.9c-12.7,18.44-34.39,50.31-45.2,68.29l-2.99,4.98l-5.57-1.66
		c-22.82-6.78-46.82-10.16-71.33-10.03c-24.51,0.13-48.47,3.75-71.22,10.78l-5.55,1.71l-3.05-4.95
		C1422.32,1384.17,1400.3,1352.53,1387.41,1334.22z"/>
</g>
<polygon points="1514.41,1643.19 1448.98,1530.07 1461.97,1522.56 1514.25,1612.95 1565.58,1522.02 1578.64,1529.39 "/>
<rect x="1470.21" y="1547.67" transform="matrix(1 -5.267584e-03 5.267584e-03 1 -8.171 7.9964)" width="87.48" height="15"/>
<polygon points="1432.63,1495.94 1403.83,1496.09 1375.22,1532.24 1396.82,1532.13 "/>
<polygon points="1594.63,1495.08 1623.43,1494.93 1652.42,1530.78 1630.82,1530.89 "/>
</svg>
