<?xml version="1.0" encoding="utf-8"?>
<!-- Generator: Adobe Illustrator 23.0.2, SVG Export Plug-In . SVG Version: 6.00 Build 0)  -->
<svg version="1.1" id="レイヤー" xmlns="http://www.w3.org/2000/svg" xmlns:xlink="http://www.w3.org/1999/xlink" x="0px"
	 y="0px" viewBox="0 0 2085.46 2088" style="enable-background:new 0 0 2085.46 2088;" xml:space="preserve">
<style type="text/css">
	.st0{fill:#FFFFFF;}
	.st1{fill:#FFCE00;}
</style>
<g>
	<circle class="st0" cx="575.99" cy="576.95" r="431.01"/>
	<path d="M573.72,145.94c238.04-1.25,432.02,190.7,433.28,428.74c1.25,238.04-190.7,432.02-428.74,433.28
		s-432.02-190.7-433.28-428.74S335.68,147.2,573.72,145.94 M573.64,130.94c-60.2,0.32-118.55,12.42-173.43,35.97
		c-52.99,22.74-100.52,55.15-141.26,96.32s-72.65,89.04-94.83,142.27c-22.97,55.12-34.46,113.59-34.14,173.8
		c0.32,60.2,12.42,118.55,35.97,173.43c22.74,52.99,55.15,100.52,96.32,141.26s89.04,72.65,142.27,94.83
		c55.12,22.97,113.59,34.46,173.8,34.14c60.2-0.32,118.55-12.42,173.43-35.97c52.99-22.74,100.52-55.15,141.26-96.32
		s72.65-89.04,94.83-142.27c22.97-55.12,34.46-113.59,34.14-173.8c-0.32-60.2-12.42-118.55-35.97-173.43
		c-22.74-52.99-55.15-100.52-96.32-141.26s-89.04-72.65-142.27-94.83C692.32,142.11,633.85,130.62,573.64,130.94L573.64,130.94z"/>
</g>
<path d="M577.45,854.55c-74.15,0.39-144.01-28.12-196.72-80.27s-81.95-121.71-82.34-195.86s28.12-144.01,80.27-196.72
	s121.71-81.95,195.86-82.34s144.01,28.12,196.72,80.27s81.95,121.71,82.34,195.86c0.39,74.15-28.12,144.01-80.27,196.72
	C721.16,824.91,651.6,854.16,577.45,854.55z M574.57,307.35c-72.01,0.38-139.57,28.78-190.22,79.97s-78.34,119.04-77.96,191.05
	s28.78,139.57,79.97,190.22c51.19,50.65,119.04,78.34,191.05,77.96s139.57-28.78,190.22-79.97
	c50.65-51.19,78.34-119.04,77.96-191.05s-28.78-139.57-79.97-190.22S646.58,306.97,574.57,307.35z"/>
<g>
	<path d="M186.63,593.01l96.92,16.24l3.38,22.88l-88.07,43.61l-3.38-22.88l19.28-8.03l-4.04-27.33l-20.78-2.11L186.63,593.01z
		 M227.63,619.04l2.85,19.29l36.06-15.07l-0.04-0.25L227.63,619.04z"/>
	<path d="M257.21,698.74c-8.95,3.87-14.98,8.99-18.08,15.36s-3.13,13.08-0.09,20.12c2.71,6.27,6.88,12.46,12.51,18.56l-16.98,7.33
		c-4.83-6.36-8.97-13.51-12.4-21.47c-5.55-12.85-6.12-24.59-1.72-35.2c4.4-10.62,13.72-19,27.95-25.14
		c13.92-6.01,26.28-7.13,37.09-3.35c10.8,3.78,18.96,12.05,24.48,24.83c3.57,8.26,5.87,16.12,6.91,23.57l-17.1,7.38
		c-0.69-8.33-2.34-15.51-4.95-21.55c-3.07-7.12-7.83-11.62-14.28-13.51C274.09,693.79,266.32,694.81,257.21,698.74z"/>
	<path d="M296.84,773.5c-7.73,5.94-12.32,12.38-13.77,19.32c-1.45,6.94,0.17,13.45,4.84,19.53c4.16,5.42,9.72,10.4,16.67,14.93
		l-14.67,11.27c-6.24-4.98-12-10.91-17.28-17.78c-8.53-11.1-11.96-22.34-10.29-33.71c1.67-11.37,8.65-21.78,20.94-31.22
		c12.03-9.24,23.74-13.35,35.13-12.33c11.4,1.02,21.33,7.05,29.81,18.08c5.48,7.14,9.64,14.19,12.47,21.16l-14.77,11.35
		c-2.71-7.9-6.07-14.47-10.08-19.69c-4.72-6.15-10.44-9.35-17.15-9.6C311.99,764.56,304.7,767.46,296.84,773.5z"/>
	<path d="M375.47,816.44l-11.93,14.79l27.54,22.21l-10.36,12.84l-27.54-22.21l-14.36,17.81l29.48,23.78l-10.99,13.62l-46.41-37.43
		l58.7-72.78l46.41,37.43l-11.06,13.72L375.47,816.44z"/>
	<path d="M416.26,896.59l-13.39,28.38l-19.33-9.12l39.89-84.56l23.18,10.93c13.64,6.43,22.58,13.32,26.81,20.66
		c4.23,7.34,4.25,15.46,0.05,24.35c-9.35,19.82-25.33,24.4-47.94,13.73L416.26,896.59z M423.09,882.12l7.23,3.41
		c5.73,2.7,10.64,3.57,14.74,2.6c4.1-0.97,7.25-3.79,9.45-8.46c2.03-4.3,2.14-8.11,0.35-11.44s-5.78-6.46-11.96-9.37l-7.24-3.41
		L423.09,882.12z"/>
	<path d="M557.08,874.21l-3.41,17.8l-24.31-4.65L515.2,961.4l-21.85-4.18l14.16-74.03l-24.31-4.65l3.4-17.8L557.08,874.21z"/>
	<path d="M586.59,890.36l0.96,18.98l35.33-1.79l0.83,16.48l-35.33,1.79l1.16,22.85l37.83-1.91l0.88,17.48l-59.55,3.01l-4.73-93.38
		l59.55-3.01l0.89,17.6L586.59,890.36z"/>
	<path d="M717.24,891.17c4.61,14.89,4.01,27.53-1.8,37.92c-5.81,10.39-16.4,17.97-31.76,22.73l-23.52,7.29L632.5,869.8l23.52-7.29
		c15.36-4.76,28.34-4.61,38.94,0.44C705.54,867.99,712.97,877.4,717.24,891.17z M697.42,897.31c-2.91-9.39-7.21-15.59-12.89-18.58
		s-12.78-3.17-21.3-0.54l-5.37,1.67l17.57,56.72l5.37-1.66c8.68-2.69,14.42-7.02,17.24-13
		C700.85,915.94,700.65,907.74,697.42,897.31z"/>
	<path d="M803.07,843.81l-22.6,17.57l24.78,31.88l-17.17,13.35l-57.38-73.82l17.17-13.35l22.48,28.92l22.6-17.57l-22.48-28.92
		l17.17-13.35l57.38,73.82l-17.17,13.35L803.07,843.81z"/>
	<path d="M821.54,774.17l15.04,11.61l21.62-28l13.06,10.08l-21.62,28l18.11,13.98l23.14-29.98l13.85,10.69l-36.43,47.2l-74.02-57.13
		l36.43-47.2l13.95,10.77L821.54,774.17z"/>
	<path d="M898.19,730.03l31.6,13.85l-8.58,19.58l-85.64-37.53l11.29-25.76c5.72-13.05,11.89-21.63,18.51-25.73
		s14.02-4.37,22.18-0.79c5.19,2.28,9.23,5.88,12.11,10.83s4.08,10.27,3.58,15.97l0.23,0.1c4.1-3.12,10.21-4.4,18.33-3.84l28.01,1.49
		l-8.98,20.49l-26.8-2.06c-3.75-0.37-6.54-0.02-8.37,1.04s-3.46,3.24-4.9,6.52L898.19,730.03z M862.59,705.69l-3.21,7.33
		l24.16,10.59l2.86-6.53c2.41-5.5,3.1-10.19,2.08-14.1c-1.02-3.9-3.55-6.74-7.6-8.51c-3.89-1.71-7.28-1.71-10.16-0.02
		C867.84,696.14,865.13,699.89,862.59,705.69z"/>
	<path d="M885.56,636.93l18.73,3.16l5.89-34.88l16.27,2.75l-5.89,34.88l22.56,3.81l6.31-37.35l17.25,2.91L956.75,671l-92.2-15.57
		l9.93-58.79l17.38,2.93L885.56,636.93z"/>
</g>
<path d="M578.2,995.66c-56.52,0.3-111.42-10.48-163.16-32.05c-49.97-20.83-94.91-50.78-133.56-89.03
	c-38.66-38.25-69.08-82.87-90.43-132.62c-22.11-51.51-33.47-106.29-33.76-162.81c-0.3-56.52,10.48-111.42,32.05-163.16
	c20.83-49.97,50.78-94.91,89.03-133.56s82.87-69.08,132.62-90.43c51.51-22.11,106.29-33.47,162.81-33.76
	c56.52-0.3,111.42,10.48,163.16,32.05c49.97,20.83,94.91,50.78,133.56,89.03c38.66,38.25,69.08,82.87,90.43,132.62
	c22.11,51.51,33.47,106.29,33.77,162.81c0.3,56.52-10.48,111.42-32.05,163.16c-20.83,49.97-50.78,94.91-89.03,133.56
	c-38.25,38.66-82.87,69.08-132.62,90.43C689.5,984.01,634.72,995.37,578.2,995.66z M573.83,166.24
	c-55.45,0.29-109.18,11.43-159.7,33.12c-48.8,20.94-92.57,50.79-130.09,88.71s-66.9,82-87.33,131.02
	c-21.15,50.74-31.72,104.59-31.43,160.04c0.29,55.45,11.43,109.18,33.12,159.7c20.94,48.8,50.79,92.57,88.71,130.09
	s82,66.9,131.02,87.33c50.74,21.15,104.59,31.72,160.04,31.43s109.18-11.43,159.7-33.12c48.8-20.94,92.57-50.79,130.09-88.71
	c37.52-37.92,66.91-82,87.33-131.02c21.15-50.74,31.72-104.59,31.43-160.04c-0.29-55.45-11.43-109.18-33.12-159.7
	c-20.94-48.8-50.79-92.57-88.71-130.09c-37.92-37.52-82-66.9-131.02-87.33C683.12,176.52,629.28,165.94,573.83,166.24z"/>
<polygon points="240.63,464.96 254,491.69 283.59,495.83 262.31,516.8 267.51,546.23 240.99,532.46 214.61,546.51 219.51,517.03 
	198,496.28 227.55,491.83 "/>
<polygon points="915.63,464.96 929,491.69 958.59,495.83 937.31,516.8 942.51,546.23 915.99,532.46 889.61,546.51 894.51,517.03 
	873,496.28 902.55,491.83 "/>
<g>
	<path d="M282.48,361.34l-0.13,0.21l48.57,45.87l-11.98,18.75l-61.96-24.91l-0.13,0.21l52.88,39.13l-11.31,17.7l-73.14-59.19
		l14-21.91l67.08,27.58l0.13-0.21l-53.14-49.39l13.93-21.8l84.44,41.5L340.14,393L282.48,361.34z"/>
	<path d="M408.19,315.01c-0.81,11.53-6.49,21.51-17.03,29.94s-21.53,11.77-32.96,10.02s-21.82-8.48-31.19-20.2
		s-13.65-23.34-12.83-34.87c0.81-11.53,6.49-21.51,17.03-29.94s21.53-11.77,32.96-10.02s21.82,8.48,31.19,20.2
		C404.73,291.86,409,303.48,408.19,315.01z M377.98,294.03c-12.49-15.62-24.33-18.96-35.53-10.01c-11.2,8.95-10.54,21.25,1.98,36.91
		c12.52,15.66,24.37,19.01,35.57,10.06C391.19,322.04,390.52,309.72,377.98,294.03z"/>
	<path d="M435.56,311.66l-33.57-87.27l19.48-7.49l48.72,42.73l0.23-0.09l-20.6-53.55l19.48-7.49l33.57,87.27l-19.48,7.49
		l-48.72-42.73l-0.23,0.09l20.6,53.55L435.56,311.66z"/>
	<path d="M513.75,282.52l23.82-95.34l23.07-1.57l36.54,91.23l-23.07,1.57l-6.49-19.85l-27.56,1.88l-3.74,20.55L513.75,282.52z
		 M542.93,243.7l19.45-1.33l-12.18-37.13l-0.25,0.02L542.93,243.7z"/>
	<path d="M635.44,236.99c-2.09,9.52-1.45,17.41,1.91,23.65c3.36,6.24,8.79,10.18,16.28,11.83c6.67,1.47,14.13,1.7,22.37,0.69
		l-3.97,18.07c-7.98,0.21-16.21-0.61-24.67-2.47c-13.67-3-23.53-9.39-29.58-19.16c-6.04-9.77-7.41-22.23-4.08-37.37
		c3.25-14.81,9.57-25.5,18.94-32.06s20.86-8.35,34.45-5.36c8.79,1.93,16.51,4.65,23.17,8.16l-3.99,18.19
		c-7.16-4.3-13.96-7.16-20.39-8.57c-7.57-1.66-14-0.43-19.3,3.7C641.28,220.4,637.57,227.3,635.44,236.99z"/>
	<path d="M755.23,322.66c-11,3.57-22.38,2.04-34.14-4.58c-11.77-6.62-18.98-15.55-21.64-26.8c-2.66-11.25-0.31-23.41,7.04-36.48
		s16.53-21.39,27.52-24.96s22.38-2.04,34.14,4.58c11.77,6.62,18.98,15.55,21.64,26.8c2.66,11.25,0.31,23.41-7.04,36.48
		C775.4,310.77,766.23,319.09,755.23,322.66z M763.37,286.79c9.81-17.43,8.46-29.66-4.03-36.69c-12.49-7.03-23.65-1.81-33.48,15.66
		c-9.83,17.47-8.49,29.72,4,36.74C742.35,309.53,753.52,304.29,763.37,286.79z"/>
	<path d="M771.92,352.21l64.28-67.9l17.34,16.41l-64.28,67.9L771.92,352.21z"/>
	<path d="M806.79,385.2l78.57-50.69l11.32,17.54l-31.88,56.42l0.13,0.21l48.21-31.1l11.32,17.54l-78.57,50.69l-11.32-17.54
		l31.88-56.42l-0.13-0.21l-48.21,31.1L806.79,385.2z"/>
</g>
<path d="M577.97,809.44c-58.22,0.31-113.11-18-154.58-51.56c-41.9-33.91-65.12-79.3-65.37-127.8
	c-0.24-45.27,19.84-88.51,56.61-122.03c7.85-42.32,24.34-124.08,24.51-124.91l3.42-16.93l10.04,14.06
	c1.54,2.15,35.85,50.24,53.46,77.96c22.49-6.38,46.01-9.68,70.02-9.8c24-0.13,47.56,2.92,70.12,9.06
	c17.31-27.9,51.12-76.34,52.64-78.51l9.89-14.16l3.59,16.89c0.18,0.84,17.53,82.41,25.82,124.65
	c37.11,33.13,57.65,76.16,57.89,121.42c0.26,48.5-22.48,94.13-64.02,128.48C690.89,790.25,636.19,809.14,577.97,809.44z
	 M450.42,403.16c-5.43,27.13-15.97,80.1-21.5,110.13l-0.47,2.54l-1.93,1.71c-34.72,30.85-53.72,70.79-53.5,112.47
	c0.48,91.26,92.38,165.03,204.87,164.43s203.61-75.32,203.13-166.58c-0.22-41.68-19.64-81.42-54.68-111.9l-1.95-1.69l-0.49-2.53
	c-5.85-29.97-16.94-82.83-22.66-109.9c-12.7,18.44-34.39,50.31-45.2,68.29l-2.99,4.98l-5.57-1.66
	c-22.82-6.78-46.82-10.16-71.33-10.03s-48.47,3.75-71.22,10.78l-5.55,1.71l-3.05-4.95C485.34,453.1,463.31,421.47,450.42,403.16z"/>
<path d="M628.6,590.95l-14.37,25.46l-74.61,0.39l-14.64-25.3L512,599.01l65.43,113.11l64.23-113.79L628.6,590.95z M577.26,681.89
	l-29-50.13l57.47-0.3L577.26,681.89z"/>
<polygon points="495.65,564.87 466.85,565.02 438.24,601.18 459.84,601.06 "/>
<polygon points="657.65,564.02 686.44,563.87 715.43,599.72 693.83,599.83 "/>
<g>
	<circle class="st1" cx="1515.99" cy="576.95" r="431.01"/>
	<path d="M1513.72,145.94c238.04-1.25,432.02,190.7,433.28,428.74s-190.7,432.02-428.74,433.28s-432.02-190.7-433.28-428.74
		S1275.68,147.2,1513.72,145.94 M1513.64,130.94c-60.2,0.32-118.55,12.42-173.43,35.97c-52.99,22.74-100.52,55.15-141.26,96.32
		s-72.65,89.04-94.83,142.27c-22.97,55.12-34.46,113.59-34.14,173.8s12.42,118.55,35.97,173.43
		c22.74,52.99,55.15,100.52,96.32,141.26c41.17,40.74,89.04,72.65,142.27,94.83c55.12,22.97,113.59,34.46,173.8,34.14
		c60.2-0.32,118.55-12.42,173.43-35.97c52.99-22.74,100.52-55.15,141.26-96.32s72.65-89.04,94.83-142.27
		c22.97-55.12,34.46-113.59,34.14-173.8c-0.32-60.2-12.42-118.55-35.97-173.43c-22.74-52.99-55.15-100.52-96.32-141.26
		s-89.04-72.65-142.27-94.83C1632.31,142.11,1573.84,130.62,1513.64,130.94L1513.64,130.94z"/>
</g>
<path d="M1517.45,854.55c-74.15,0.39-144.01-28.12-196.72-80.27s-81.95-121.71-82.34-195.86s28.12-144.01,80.27-196.72
	s121.71-81.95,195.86-82.34s144.01,28.12,196.72,80.27s81.95,121.71,82.34,195.86s-28.12,144.01-80.27,196.72
	C1661.15,824.91,1591.6,854.16,1517.45,854.55z M1514.57,307.35c-72.01,0.38-139.57,28.78-190.22,79.97s-78.34,119.04-77.96,191.05
	s28.78,139.57,79.97,190.22c51.19,50.65,119.04,78.34,191.05,77.96c72.01-0.38,139.57-28.78,190.22-79.97s78.34-119.04,77.96-191.05
	s-28.78-139.57-79.97-190.22S1586.58,306.97,1514.57,307.35z"/>
<g>
	<path d="M1126.62,593.01l96.92,16.24l3.38,22.88l-88.07,43.61l-3.38-22.88l19.28-8.03l-4.04-27.33l-20.78-2.11L1126.62,593.01z
		 M1167.62,619.04l2.85,19.29l36.06-15.07l-0.04-0.25L1167.62,619.04z"/>
	<path d="M1197.21,698.74c-8.95,3.87-14.98,8.99-18.08,15.36c-3.1,6.38-3.13,13.08-0.09,20.12c2.71,6.27,6.88,12.46,12.51,18.56
		l-16.98,7.33c-4.83-6.36-8.97-13.51-12.4-21.47c-5.55-12.85-6.12-24.59-1.72-35.2c4.4-10.62,13.72-19,27.95-25.14
		c13.92-6.01,26.29-7.13,37.09-3.35c10.8,3.78,18.96,12.05,24.48,24.83c3.57,8.26,5.87,16.12,6.91,23.57l-17.1,7.38
		c-0.69-8.33-2.34-15.51-4.95-21.55c-3.07-7.12-7.83-11.62-14.28-13.51C1214.08,693.79,1206.31,694.81,1197.21,698.74z"/>
	<path d="M1236.83,773.5c-7.73,5.94-12.32,12.38-13.77,19.32c-1.44,6.94,0.17,13.45,4.84,19.53c4.16,5.42,9.72,10.4,16.67,14.93
		l-14.67,11.27c-6.24-4.98-12-10.91-17.28-17.78c-8.53-11.1-11.96-22.34-10.29-33.71c1.67-11.37,8.65-21.78,20.94-31.22
		c12.03-9.24,23.74-13.35,35.13-12.33c11.4,1.02,21.33,7.05,29.81,18.08c5.48,7.14,9.64,14.19,12.47,21.16l-14.77,11.35
		c-2.71-7.9-6.07-14.47-10.08-19.69c-4.72-6.15-10.44-9.35-17.15-9.6C1251.98,764.56,1244.7,767.46,1236.83,773.5z"/>
	<path d="M1315.46,816.44l-11.93,14.79l27.54,22.21l-10.36,12.84l-27.54-22.21l-14.36,17.81l29.48,23.78l-10.99,13.62l-46.41-37.43
		l58.7-72.78L1356,826.5l-11.06,13.72L1315.46,816.44z"/>
	<path d="M1356.25,896.59l-13.39,28.38l-19.33-9.12l39.89-84.56l23.18,10.93c13.64,6.43,22.58,13.32,26.81,20.66
		c4.23,7.34,4.25,15.46,0.05,24.35c-9.35,19.82-25.33,24.4-47.94,13.73L1356.25,896.59z M1363.08,882.12l7.23,3.41
		c5.73,2.7,10.64,3.57,14.74,2.6c4.1-0.97,7.25-3.79,9.45-8.46c2.03-4.3,2.14-8.11,0.35-11.44s-5.78-6.46-11.96-9.37l-7.24-3.41
		L1363.08,882.12z"/>
	<path d="M1497.07,874.21l-3.41,17.8l-24.31-4.65l-14.16,74.03l-21.85-4.18l14.16-74.03l-24.31-4.65l3.4-17.8L1497.07,874.21z"/>
	<path d="M1526.58,890.36l0.96,18.98l35.33-1.79l0.83,16.48l-35.33,1.79l1.16,22.85l37.83-1.91l0.88,17.48l-59.55,3.01l-4.73-93.38
		l59.55-3.01l0.89,17.6L1526.58,890.36z"/>
	<path d="M1657.23,891.17c4.61,14.89,4.01,27.53-1.8,37.92c-5.81,10.39-16.4,17.97-31.76,22.73l-23.52,7.29l-27.66-89.31l23.52-7.29
		c15.36-4.76,28.34-4.61,38.94,0.44C1645.54,867.99,1652.97,877.4,1657.23,891.17z M1637.41,897.31
		c-2.91-9.39-7.21-15.59-12.89-18.58s-12.78-3.17-21.3-0.54l-5.37,1.67l17.57,56.72l5.37-1.66c8.68-2.69,14.42-7.02,17.24-13
		C1640.85,915.94,1640.64,907.74,1637.41,897.31z"/>
	<path d="M1743.06,843.81l-22.6,17.57l24.78,31.88l-17.17,13.35l-57.38-73.82l17.17-13.35l22.48,28.92l22.6-17.57l-22.48-28.92
		l17.17-13.35l57.38,73.82l-17.17,13.35L1743.06,843.81z"/>
	<path d="M1761.53,774.17l15.04,11.61l21.62-28l13.06,10.08l-21.61,28l18.11,13.98l23.14-29.98l13.85,10.69l-36.43,47.2
		l-74.02-57.13l36.43-47.2l13.95,10.77L1761.53,774.17z"/>
	<path d="M1838.18,730.03l31.6,13.85l-8.58,19.58l-85.64-37.53l11.29-25.76c5.72-13.05,11.89-21.63,18.51-25.73
		s14.02-4.37,22.18-0.79c5.19,2.28,9.23,5.88,12.11,10.83s4.08,10.27,3.58,15.97l0.23,0.1c4.1-3.12,10.21-4.4,18.33-3.84l28.01,1.49
		l-8.98,20.49l-26.8-2.06c-3.75-0.37-6.54-0.02-8.37,1.04s-3.46,3.24-4.9,6.52L1838.18,730.03z M1802.58,705.69l-3.21,7.33
		l24.16,10.59l2.86-6.53c2.41-5.5,3.1-10.19,2.08-14.1c-1.02-3.9-3.55-6.74-7.6-8.51c-3.89-1.71-7.28-1.71-10.16-0.02
		S1805.12,699.89,1802.58,705.69z"/>
	<path d="M1825.56,636.93l18.74,3.16l5.89-34.88l16.27,2.75l-5.89,34.88l22.56,3.81l6.31-37.35l17.25,2.91l-9.93,58.79l-92.2-15.57
		l9.93-58.79l17.38,2.93L1825.56,636.93z"/>
</g>
<path d="M1518.19,995.66c-56.52,0.3-111.42-10.48-163.16-32.05c-49.97-20.83-94.91-50.78-133.56-89.03
	c-38.66-38.25-69.08-82.87-90.43-132.62c-22.11-51.51-33.47-106.29-33.76-162.81c-0.3-56.52,10.48-111.42,32.05-163.16
	c20.83-49.97,50.78-94.91,89.03-133.56s82.87-69.08,132.62-90.43c51.51-22.11,106.29-33.47,162.81-33.76
	c56.52-0.3,111.42,10.48,163.16,32.05c49.97,20.83,94.91,50.78,133.56,89.03c38.66,38.25,69.08,82.87,90.43,132.62
	c22.11,51.51,33.47,106.29,33.77,162.81s-10.48,111.42-32.05,163.16c-20.83,49.97-50.78,94.91-89.03,133.56
	c-38.25,38.66-82.87,69.08-132.62,90.43C1629.49,984.01,1574.72,995.37,1518.19,995.66z M1513.82,166.24
	c-55.45,0.29-109.18,11.43-159.7,33.12c-48.8,20.94-92.57,50.79-130.09,88.71s-66.9,82-87.33,131.02
	c-21.15,50.74-31.72,104.59-31.43,160.04c0.29,55.45,11.43,109.18,33.12,159.7c20.94,48.8,50.79,92.57,88.71,130.09
	c37.92,37.52,82,66.9,131.02,87.33c50.74,21.15,104.59,31.72,160.04,31.43c55.45-0.29,109.18-11.43,159.7-33.12
	c48.8-20.94,92.57-50.79,130.09-88.71c37.52-37.92,66.91-82,87.33-131.02c21.15-50.74,31.72-104.59,31.43-160.04
	c-0.29-55.45-11.43-109.18-33.12-159.7c-20.94-48.8-50.79-92.57-88.71-130.09c-37.92-37.52-82-66.9-131.02-87.33
	C1623.11,176.52,1569.27,165.94,1513.82,166.24z"/>
<polygon points="1180.63,464.96 1193.99,491.69 1223.59,495.83 1202.3,516.8 1207.51,546.23 1180.98,532.46 1154.61,546.51 
	1159.5,517.03 1137.99,496.28 1167.54,491.83 "/>
<polygon points="1855.63,464.96 1868.99,491.69 1898.59,495.83 1877.3,516.8 1882.51,546.23 1855.98,532.46 1829.61,546.51 
	1834.5,517.03 1812.99,496.28 1842.54,491.83 "/>
<g>
	<path d="M1222.47,361.34l-0.13,0.21l48.57,45.87l-11.98,18.75l-61.96-24.91l-0.13,0.21l52.88,39.13l-11.31,17.7l-73.14-59.19
		l14-21.91l67.08,27.58l0.13-0.21l-53.14-49.39l13.93-21.8l84.44,41.5L1280.13,393L1222.47,361.34z"/>
	<path d="M1348.19,315.01c-0.81,11.53-6.49,21.51-17.03,29.94s-21.53,11.77-32.96,10.02c-11.43-1.75-21.82-8.48-31.19-20.2
		s-13.65-23.34-12.83-34.87c0.81-11.53,6.49-21.51,17.03-29.94s21.53-11.77,32.96-10.02c11.43,1.75,21.82,8.48,31.19,20.2
		C1344.72,291.86,1349,303.48,1348.19,315.01z M1317.97,294.03c-12.49-15.62-24.33-18.96-35.53-10.01
		c-11.2,8.95-10.54,21.25,1.98,36.91s24.37,19.01,35.57,10.06C1331.19,322.04,1330.52,309.72,1317.97,294.03z"/>
	<path d="M1375.55,311.66l-33.57-87.27l19.48-7.49l48.72,42.73l0.23-0.09l-20.6-53.55l19.48-7.49l33.57,87.27l-19.48,7.49
		l-48.72-42.73l-0.23,0.09l20.6,53.55L1375.55,311.66z"/>
	<path d="M1453.75,282.52l23.82-95.34l23.07-1.57l36.54,91.23l-23.07,1.57l-6.49-19.85l-27.56,1.88l-3.74,20.55L1453.75,282.52z
		 M1482.92,243.7l19.45-1.33l-12.18-37.13l-0.25,0.02L1482.92,243.7z"/>
	<path d="M1575.44,236.99c-2.09,9.52-1.45,17.41,1.91,23.65c3.36,6.24,8.79,10.18,16.28,11.83c6.67,1.47,14.13,1.7,22.37,0.69
		l-3.97,18.07c-7.98,0.21-16.21-0.61-24.67-2.47c-13.67-3-23.53-9.39-29.58-19.16c-6.04-9.77-7.41-22.23-4.08-37.37
		c3.25-14.81,9.57-25.5,18.94-32.06s20.86-8.35,34.45-5.36c8.79,1.93,16.51,4.65,23.17,8.16l-3.99,18.19
		c-7.16-4.3-13.96-7.16-20.39-8.57c-7.57-1.66-14-0.43-19.3,3.7C1581.27,220.4,1577.56,227.3,1575.44,236.99z"/>
	<path d="M1695.23,322.66c-11,3.57-22.38,2.04-34.14-4.58c-11.77-6.62-18.98-15.55-21.64-26.8s-0.31-23.41,7.04-36.48
		c7.35-13.07,16.53-21.39,27.52-24.96s22.38-2.04,34.14,4.58c11.77,6.62,18.98,15.55,21.64,26.8s0.31,23.41-7.04,36.48
		C1715.4,310.77,1706.22,319.09,1695.23,322.66z M1703.36,286.79c9.81-17.43,8.46-29.66-4.03-36.69s-23.65-1.81-33.48,15.66
		s-8.49,29.72,4,36.74C1682.34,309.53,1693.51,304.29,1703.36,286.79z"/>
	<path d="M1711.92,352.21l64.28-67.9l17.34,16.41l-64.28,67.9L1711.92,352.21z"/>
	<path d="M1746.78,385.2l78.57-50.69l11.32,17.54l-31.88,56.42l0.13,0.21l48.21-31.1l11.32,17.54l-78.57,50.69l-11.32-17.54
		l31.88-56.42l-0.13-0.21l-48.21,31.1L1746.78,385.2z"/>
</g>
<g>
	<path class="st0" d="M1670.24,510.3c-8.16-41.84-26.29-127.03-26.29-127.03s-39.28,56.24-55.36,82.99
		c-22.92-6.81-47.68-10.47-73.5-10.34c-25.83,0.14-50.55,4.06-73.39,11.11c-16.36-26.58-56.23-82.41-56.23-82.41
		s-17.23,85.38-24.95,127.3c-34.97,31.07-56.26,72.6-56.02,118.12c0.5,95.55,95.6,172.51,212.41,171.9S1728,723.37,1727.5,627.82
		C1727.26,582.3,1705.54,541,1670.24,510.3z"/>
	<path d="M1516.96,809.44c-58.22,0.31-113.11-18-154.58-51.56c-41.9-33.91-65.12-79.3-65.37-127.8
		c-0.24-45.27,19.84-88.51,56.61-122.03c7.85-42.32,24.34-124.08,24.51-124.91l3.42-16.93l10.04,14.06
		c1.54,2.15,35.85,50.24,53.46,77.96c22.49-6.38,46.01-9.68,70.02-9.8c24-0.13,47.56,2.92,70.12,9.06
		c17.31-27.9,51.12-76.34,52.64-78.51l9.89-14.16l3.59,16.89c0.18,0.84,17.53,82.41,25.82,124.65
		c37.11,33.13,57.65,76.16,57.89,121.42c0.26,48.5-22.48,94.13-64.02,128.48C1629.88,790.25,1575.18,809.14,1516.96,809.44z
		 M1389.41,403.16c-5.43,27.13-15.97,80.1-21.5,110.13l-0.47,2.54l-1.93,1.71c-34.72,30.85-53.72,70.79-53.5,112.47
		c0.48,91.26,92.38,165.03,204.87,164.43s203.61-75.32,203.13-166.58c-0.22-41.68-19.64-81.42-54.68-111.9l-1.95-1.69l-0.49-2.53
		c-5.84-29.97-16.94-82.83-22.66-109.9c-12.7,18.44-34.39,50.31-45.2,68.29l-2.99,4.98l-5.57-1.66
		c-22.82-6.78-46.82-10.16-71.33-10.03s-48.47,3.75-71.22,10.78l-5.55,1.71l-3.05-4.95C1424.32,453.1,1402.3,421.47,1389.41,403.16z
		"/>
</g>
<path d="M1567.58,590.95l-14.37,25.46l-74.61,0.39l-14.64-25.3l-12.98,7.51l65.43,113.11l64.23-113.8L1567.58,590.95z
	 M1516.25,681.89l-29-50.13l57.47-0.3L1516.25,681.89z"/>
<polygon points="1434.63,564.87 1405.83,565.02 1377.22,601.18 1398.82,601.06 "/>
<polygon points="1596.63,564.02 1625.43,563.87 1654.42,599.72 1632.82,599.83 "/>
<g>
	<circle class="st1" cx="1512.98" cy="1508.01" r="431.01"/>
	<path d="M1510.71,1077.01c238.04-1.25,432.02,190.7,433.28,428.74s-190.7,432.02-428.74,433.28s-432.02-190.7-433.28-428.74
		S1272.67,1078.26,1510.71,1077.01 M1510.63,1062.01c-60.2,0.32-118.55,12.42-173.43,35.97c-52.99,22.74-100.52,55.15-141.26,96.32
		c-40.74,41.17-72.65,89.04-94.83,142.27c-22.97,55.12-34.46,113.59-34.14,173.8s12.42,118.55,35.97,173.43
		c22.74,52.99,55.15,100.52,96.32,141.26c41.17,40.74,89.04,72.65,142.27,94.83c55.12,22.97,113.59,34.46,173.8,34.14
		s118.55-12.42,173.43-35.97c52.99-22.74,100.52-55.15,141.26-96.32c40.74-41.17,72.65-89.04,94.83-142.27
		c22.97-55.12,34.46-113.59,34.14-173.8c-0.32-60.2-12.42-118.55-35.97-173.43c-22.74-52.99-55.15-100.52-96.32-141.26
		c-41.17-40.74-89.04-72.65-142.27-94.83C1629.31,1073.18,1570.83,1061.69,1510.63,1062.01L1510.63,1062.01z"/>
</g>
<path d="M1514.44,1785.61c-74.15,0.39-144.01-28.12-196.72-80.27s-81.95-121.71-82.34-195.86s28.12-144.01,80.27-196.72
	s121.71-81.95,195.86-82.34s144.01,28.12,196.72,80.27s81.95,121.71,82.34,195.86s-28.12,144.01-80.27,196.72
	C1658.15,1755.98,1588.59,1785.22,1514.44,1785.61z M1511.56,1238.42c-72.01,0.38-139.57,28.78-190.22,79.97
	c-50.65,51.19-78.34,119.04-77.96,191.05s28.78,139.57,79.97,190.22s119.04,78.34,191.05,77.96s139.57-28.78,190.22-79.97
	c50.65-51.19,78.34-119.04,77.96-191.05s-28.78-139.57-79.97-190.22C1651.42,1265.73,1583.57,1238.04,1511.56,1238.42z"/>
<g>
	<path d="M1222.84,1653.43l-0.1-0.23l-65.42,13.52l-8.5-20.56l55.92-36.51l-0.09-0.23l-62.37,20.91l-8.02-19.41l90.42-26.02
		l9.93,24.03l-61.04,39.17l0.1,0.23l70.93-15.25l9.88,23.91l-82.4,45.42l-8.21-19.87L1222.84,1653.43z"/>
	<path d="M1245.29,1776.43c-11.55-0.49-21.69-5.88-30.41-16.18c-8.72-10.3-12.37-21.19-10.95-32.66
		c1.42-11.47,7.86-22.05,19.31-31.75c11.45-9.69,22.95-14.3,34.5-13.81c11.55,0.48,21.68,5.88,30.41,16.18
		c8.72,10.3,12.37,21.19,10.95,32.66c-1.43,11.47-7.86,22.05-19.31,31.75C1268.34,1772.31,1256.84,1776.92,1245.29,1776.43z
		 M1265.41,1745.64c15.26-12.92,18.26-24.86,9-35.79c-9.26-10.94-21.54-9.93-36.84,3.02c-15.3,12.95-18.31,24.9-9.05,35.83
		C1237.79,1759.64,1250.08,1758.62,1265.41,1745.64z"/>
	<path d="M1267.1,1811.92l51.93-77.76l17.36,11.59l-6.81,64.44l0.21,0.14l31.86-47.71l17.36,11.59l-51.93,77.76l-17.36-11.59
		l6.81-64.44l-0.21-0.14l-31.86,47.71L1267.1,1811.92z"/>
	<path d="M1351.59,1864.8l57.96-79.36l21.97,7.23l-0.49,98.27l-21.97-7.23l1.46-20.84l-26.24-8.63l-11.2,17.63L1351.59,1864.8z
		 M1393.23,1839.82l18.52,6.09l2.69-38.99l-0.24-0.08L1393.23,1839.82z"/>
	<path d="M1476.14,1848.92c-0.61,9.73,1.22,17.42,5.5,23.08c4.28,5.66,10.24,8.72,17.9,9.2c6.82,0.43,14.22-0.49,22.21-2.74
		l-1.16,18.46c-7.86,1.43-16.11,1.87-24.76,1.33c-13.97-0.88-24.69-5.68-32.16-14.42c-7.47-8.74-10.72-20.84-9.75-36.31
		c0.95-15.14,5.56-26.66,13.82-34.58c8.26-7.91,19.34-11.44,33.23-10.56c8.98,0.56,17.03,2.07,24.14,4.52l-1.17,18.59
		c-7.74-3.16-14.89-4.94-21.46-5.36c-7.74-0.48-13.91,1.72-18.51,6.6C1479.37,1831.63,1476.76,1839.02,1476.14,1848.92z"/>
	<path d="M1619.91,1871.87c-5.99,9.89-15.59,16.18-28.82,18.86s-24.53,0.64-33.9-6.13s-15.54-17.51-18.53-32.21
		c-2.98-14.7-1.48-27,4.5-36.88c5.99-9.89,15.59-16.17,28.83-18.86c13.23-2.69,24.53-0.64,33.9,6.13s15.54,17.51,18.53,32.21
		C1627.4,1849.68,1625.89,1861.98,1619.91,1871.87z M1602.61,1839.41c-3.98-19.6-12.99-27.97-27.04-25.12s-19.08,14.1-15.09,33.74
		s13,28.04,27.05,25.19C1601.57,1870.36,1606.6,1859.09,1602.61,1839.41z"/>
	<path d="M1655.1,1870.74l-36.79-85.96l21.95-9.39l36.79,85.96L1655.1,1870.74z"/>
	<path d="M1702.98,1849.78l-52.83-77.14l17.22-11.79l57.27,30.32l0.21-0.14l-32.42-47.34l17.22-11.79l52.83,77.15l-17.22,11.79
		l-57.27-30.32l-0.21,0.14l32.42,47.34L1702.98,1849.78z"/>
	<path d="M1841.3,1697.79c2.49,11.29-0.13,22.47-7.86,33.54c-7.73,11.07-17.32,17.38-28.77,18.94
		c-11.45,1.56-23.33-1.96-35.63-10.54c-12.3-8.59-19.69-18.52-22.18-29.81c-2.49-11.29,0.13-22.47,7.86-33.54
		c7.73-11.07,17.32-17.38,28.77-18.94c11.45-1.56,23.33,1.96,35.63,10.54C1831.42,1676.57,1838.81,1686.51,1841.3,1697.79z
		 M1806.38,1686.23c-16.4-11.45-28.7-11.29-36.91,0.46c-8.21,11.75-4.09,23.37,12.34,34.84c16.43,11.47,28.75,11.33,36.96-0.42
		C1826.98,1709.35,1822.85,1697.72,1806.38,1686.23z"/>
	<path d="M1788.44,1616.78l37.89,13.2l0.08-0.24l-29.38-37.63l8.26-23.73l32.27,43.8l56.44-14.23l-8.26,23.73l-50.36,11.19
		l-0.08,0.24l41.43,14.43l-7.15,20.54l-88.3-30.75L1788.44,1616.78z"/>
</g>
<path d="M1515.18,1926.73c-56.52,0.3-111.42-10.48-163.16-32.05c-49.97-20.83-94.91-50.78-133.56-89.03s-69.08-82.87-90.43-132.62
	c-22.11-51.51-33.47-106.29-33.77-162.81c-0.3-56.52,10.48-111.42,32.05-163.16c20.83-49.97,50.78-94.91,89.03-133.56
	s82.87-69.08,132.62-90.43c51.51-22.11,106.29-33.47,162.81-33.76c56.52-0.3,111.42,10.48,163.16,32.05
	c49.97,20.83,94.91,50.78,133.56,89.03c38.66,38.25,69.08,82.87,90.43,132.62c22.11,51.51,33.47,106.29,33.77,162.81
	s-10.48,111.42-32.05,163.16c-20.83,49.97-50.78,94.91-89.03,133.56c-38.25,38.66-82.87,69.08-132.62,90.43
	C1626.49,1915.07,1571.71,1926.43,1515.18,1926.73z M1510.82,1097.3c-55.45,0.29-109.18,11.43-159.7,33.12
	c-48.8,20.94-92.57,50.79-130.09,88.71c-37.52,37.92-66.9,82-87.33,131.02c-21.15,50.74-31.72,104.59-31.43,160.04
	c0.29,55.45,11.43,109.18,33.12,159.7c20.94,48.8,50.79,92.57,88.71,130.09c37.92,37.52,82,66.9,131.02,87.33
	c50.74,21.15,104.59,31.72,160.04,31.43c55.45-0.29,109.18-11.43,159.7-33.12c48.8-20.94,92.57-50.79,130.09-88.71
	c37.52-37.92,66.9-82,87.33-131.02c21.15-50.74,31.72-104.59,31.43-160.04c-0.29-55.45-11.43-109.18-33.12-159.7
	c-20.94-48.8-50.79-92.57-88.71-130.09c-37.92-37.52-82-66.9-131.02-87.33C1620.11,1107.58,1566.26,1097.01,1510.82,1097.3z"/>
<polygon points="1173.06,1449.57 1186.43,1476.29 1216.02,1480.44 1194.73,1501.41 1199.94,1530.83 1173.42,1517.07 
	1147.04,1531.11 1151.94,1501.63 1130.43,1480.89 1159.98,1476.43 "/>
<polygon points="1857.05,1445.96 1870.42,1472.69 1900.01,1476.83 1878.72,1497.8 1883.93,1527.23 1857.41,1513.46 1831.03,1527.51 
	1835.93,1498.03 1814.42,1477.28 1843.97,1472.83 "/>
<g>
	<path d="M1162.07,1397.3l-17.24-7.37l27.94-65.42l17.24,7.36l-14.27,33.41l13.75,6l16.06-37.61l16.81,7.18l-16.06,37.61
		c0.07,0.03,0.61,0.26,1.62,0.69c1.01,0.43,2.15,0.94,3.43,1.53c1.28,0.59,2.35,1.07,3.21,1.43c3.08,1.15,5.6,1.61,7.56,1.38
		c1.96-0.22,3.64-1.86,5.03-4.92s2.88-6.63,4.45-10.71c1.58-4.08,2.92-7.59,4.04-10.51s1.69-4.42,1.72-4.49l17.46,7.46
		c-0.03,0.07-0.63,1.52-1.79,4.33c-1.16,2.82-2.65,6.41-4.47,10.77s-3.58,8.43-5.28,12.21c-1.7,3.78-4.08,7.11-7.14,10.01
		s-6.82,4.37-11.26,4.43c-4.44,0.06-9.6-1-15.47-3.17c-1.08-0.46-2.4-1-3.96-1.63c-1.56-0.62-2.96-1.18-4.2-1.67
		c-1.24-0.48-1.89-0.74-1.96-0.77l-8.01,18.75l-16.81-7.18l7.96-18.64l-13.79-5.89L1162.07,1397.3z"/>
	<path d="M1217.66,1315.44l-14.41-12l21.22-25.49l-15.94-13.27l12-14.41l15.94,13.27l18.97-22.79l14.41,12l-18.97,22.79l10.81,9
		c6.4,5.63,10.46,11.46,12.21,17.48c1.74,6.03,2.35,11.74,1.82,17.14s-1.53,10.44-2.99,15.13c-1.46,4.68-2.89,8.42-4.3,11.21
		c-1.41,2.79-2.17,4.19-2.28,4.2l-14.77-12.3c0.05-0.06,0.55-0.99,1.49-2.8c0.95-1.8,1.9-4.21,2.88-7.21s1.55-6.35,1.74-10.06
		c0.19-3.71-0.58-7.27-2.31-10.69c-1.73-3.42-4.52-6.78-8.37-10.09l-7.93-6.6L1217.66,1315.44z"/>
	<path d="M1278.27,1226.13l-10.26-15.27l59.83-40.18l47.83,71.21l-59.83,40.18l-10.26-15.27l43.97-29.53l-27.31-40.66
		L1278.27,1226.13z"/>
	<path d="M1432.75,1126.71c-1.04,7.47-2.89,14.8-5.55,21.97c-2.66,7.18-5.16,13.48-7.52,18.92l18.88,58.68l-17.63,5.67l-14.5-45.07
		c-4.24,6.46-8.56,11.91-12.96,16.36c-4.4,4.45-7.98,7.72-10.76,9.8c-2.78,2.08-4.2,3.14-4.28,3.16l-5.78-17.96
		c0.07-0.02,1.72-1.4,4.95-4.12s7.15-6.78,11.78-12.16c4.63-5.39,9.08-12.15,13.35-20.3s7.58-17.64,9.91-28.49L1432.75,1126.71z"/>
	<path d="M1463.43,1143.21l-0.56-18.27l36.54-1.11l0.56,18.27L1463.43,1143.21z M1541.37,1142.24
		c-3.47,14.41-8.35,26.21-14.63,35.38c-6.29,9.18-12.89,16.32-19.81,21.41c-6.92,5.1-13.51,8.76-19.77,10.98s-11.4,3.57-15.41,4.04
		c-4.01,0.47-6.06,0.67-6.14,0.6l-0.58-19.09c0.08,0.08,1.68-0.03,4.8-0.32c3.12-0.29,7.1-1.21,11.93-2.77
		c4.84-1.55,9.89-4.4,15.16-8.55s10.09-9.35,14.47-15.62s8.17-14.77,11.36-25.49L1541.37,1142.24z"/>
	<path d="M1644.22,1199.37l-22.89-6.25c-2.53,6.06-5.57,10.86-9.1,14.42c7.34,5.99,17.27,11.27,29.79,15.83
		c-1.78,1.07-3.8,2.61-6.07,4.62c-2.27,2.01-4.11,3.87-5.52,5.58c-12.3-5.12-22.02-11.18-29.15-18.19
		c-5.81,2.73-12.93,4.23-21.37,4.49c-0.39-1.79-1.15-4.13-2.29-7c-1.14-2.88-2.23-5.23-3.28-7.07c7.1,0.46,13.03-0.15,17.81-1.82
		c-2.85-4.63-5.19-10.16-7.01-16.59l12.3-0.18c0.94,3.23,2.59,6.58,4.95,10.06c1.96-2.23,3.66-4.87,5.1-7.92l-20.63-5.64l8-29.3
		l21.29,5.82l1.44-5.28l-22.99-6.28l2.37-8.67c-1.32,1.6-3.77,4.27-7.35,8.01l-19.02,69.62l-13.28-3.63l13.56-49.65
		c-3.03,2.21-5.86,4.04-8.48,5.48c-0.08-1.91-0.47-4.65-1.15-8.21c-0.68-3.56-1.36-6.34-2.02-8.35c5.61-2.99,11.31-7.07,17.11-12.23
		c5.8-5.16,10.82-10.71,15.07-16.64l11.84,7.79c-0.33,0.45-0.86,1.18-1.61,2.19c-0.75,1.01-1.32,1.73-1.71,2.17l21.1,5.76l2.19-8.01
		l13.85,3.78l-2.19,8.01l24.4,6.67l-3.45,12.62l-24.4-6.67l-1.44,5.28l22.23,6.07L1644.22,1199.37z M1604.39,1169.15l-1.85,6.78
		l8.67,2.37l1.85-6.78L1604.39,1169.15z M1635.67,1177.7l-8.76-2.39l-1.85,6.78l8.76,2.39L1635.67,1177.7z"/>
	<path d="M1682.67,1185.9l49.53,32.61l-7.99,12.14l-17.6,3.29c1.83,2.33,2.39,4.5,1.68,6.51s-1.66,3.84-2.85,5.49
		c-0.9,1.37-1.87,2.84-2.9,4.4c-1.03,1.57-1.85,2.81-2.45,3.72c-0.6,0.91-0.65,0.98-0.13,0.2c-0.77,1.17-1.17,1.99-1.19,2.44
		c-0.02,0.46,0.49,1.03,1.54,1.71c1.54,1.21,3.79,2.45,6.73,3.73s5.48,2.25,7.62,2.91s3.24,1.01,3.31,1.05l-9.86,14.97
		c-7.9-2.49-14.54-5.55-19.91-9.18c-4.72-3.2-7.51-6.54-8.36-10c-0.86-3.46,0.4-7.68,3.78-12.67c0.82-1.24,1.71-2.59,2.67-4.06
		c0.97-1.47,1.8-2.74,2.51-3.82s1.08-1.65,1.13-1.71c0.04-0.06,0.2-0.34,0.47-0.82s0.41-0.94,0.43-1.4
		c0.02-0.46-0.31-0.67-0.98-0.65l-47.54,8.27l13.6-20.65l45.86-6.57l-27.99-18.43L1682.67,1185.9z M1703.45,1171.39
		c3.65,2.12,7.01,4.17,10.06,6.13c3.06,1.97,6.43,4.26,10.13,6.88s7.06,5.19,10.09,7.7c3.02,2.51,5.43,4.58,7.2,6.22
		c1.77,1.64,2.73,2.5,2.86,2.58l-8.89,13.51c-0.09-0.15-0.99-1.09-2.7-2.83c-1.71-1.73-4.08-3.86-7.11-6.36
		c-3.03-2.51-6.44-5.06-10.25-7.66c-5.83-3.93-10.62-7.06-14.37-9.39s-5.66-3.52-5.72-3.56L1703.45,1171.39z"/>
	<path d="M1760.25,1249.18l19.78,23.02l4.98-4.28l-21.16-24.62l12.35-10.62l21.16,24.62l7.64-6.57l11.08,12.89l-7.64,6.57
		l16.12,18.75l-12.35,10.62l-16.12-18.75l-4.98,4.28l14.82,17.24l-12.09,10.39l-14.82-17.24l-6.49,5.58
		c1.29,3.42,2.31,7.18,3.05,11.28s1.21,7.56,1.42,10.37c0.2,2.81,0.27,4.3,0.2,4.46l-15.29,13.14c0.01-0.11,0.03-1.67,0.06-4.69
		c0.03-3.02-0.05-6.71-0.24-11.07c-0.2-4.36-0.72-8.65-1.56-12.87l-2.76,2.37c-4.67,3.91-8.95,5.86-12.82,5.85
		c-3.88-0.02-7.25-1.03-10.12-3.05s-5.47-4.44-7.8-7.28c-3-3.5-5.21-7.26-6.62-11.3s-1.69-7.9-0.83-11.57
		c0.86-3.67,2.93-7.02,6.2-10.04c4.09-3.51,8.29-5.22,12.6-5.11c4.31,0.1,8.68,1.63,13.12,4.56c4.43,2.94,8.46,6.46,12.08,10.55
		l4.71-4.05l-19.78-23.02L1760.25,1249.18z M1738.33,1299.55c1.07,1.24,2.35,2.05,3.85,2.41s2.95,0.04,4.35-0.96l5.6-4.81
		c-2.74-4.14-5.65-6.84-8.74-8.1s-5.32-1.36-6.67-0.3c-1.36,1.17-2.1,2.65-2.21,4.45
		C1734.41,1294.03,1735.68,1296.46,1738.33,1299.55z"/>
	<path d="M1825.2,1321.65l15.13-6.93l18.85,41.12l10.97-5.03l6.93,15.13l-10.97,5.03l7.32,15.98l-15.13,6.93l-7.32-15.98
		l-20.88,9.57c-3.98,4.06-7.77,7.04-11.37,8.95c-5.55,2.89-11,4.78-16.34,5.69c-5.34,0.9-11.04,0.94-17.1,0.1l-7.47-16.3
		c3.16,0.53,6.46,0.69,9.89,0.49s6.34-0.5,8.74-0.91c2.39-0.41,3.66-0.64,3.8-0.71c-3.5-0.89-6.32-2.02-8.46-3.41
		c-2.14-1.38-3.96-3.53-5.47-6.45c-1.93-4.01-2.59-8.05-2-12.1c0.59-4.05,2.38-7.84,5.37-11.35c2.98-3.52,7.12-6.45,12.41-8.78
		c4.47-1.88,9.04-2.68,13.72-2.42c4.67,0.26,8.77,1.65,12.29,4.17s6.41,6.26,8.69,11.23c0.74,1.98,1.2,3.88,1.38,5.68
		c0.18,1.81,0.19,3.18,0.02,4.12l5.86-2.69L1825.2,1321.65z M1817.42,1376.4c1.5-0.86,2.84-1.86,4.04-3.01
		c0.9-0.84,1.75-2.22,2.55-4.13s0.62-4.41-0.53-7.49c-1.8-3.56-4.01-5.6-6.61-6.12c-2.61-0.53-5.26-0.17-7.96,1.07
		c-3.77,1.73-6.11,3.92-7.04,6.58c-0.93,2.66-0.5,5.38,1.3,8.17c1.73,2.47,3.69,4.02,5.87,4.66c2.18,0.63,4.09,0.85,5.72,0.67
		C1816.39,1376.59,1817.28,1376.46,1817.42,1376.4z"/>
</g>
<g>
	<path class="st0" d="M1668.24,1441.36c-8.16-41.84-26.29-127.03-26.29-127.03s-39.28,56.24-55.36,82.99
		c-22.92-6.81-47.68-10.47-73.5-10.34c-25.83,0.14-50.55,4.06-73.39,11.11c-16.36-26.58-56.23-82.41-56.23-82.41
		s-17.23,85.38-24.95,127.3c-34.97,31.07-56.26,72.6-56.02,118.12c0.5,95.55,95.6,172.51,212.41,171.9
		c116.81-0.62,211.09-78.57,210.59-174.12C1725.26,1513.36,1703.54,1472.07,1668.24,1441.36z"/>
	<path d="M1514.96,1740.51c-58.22,0.31-113.11-18-154.58-51.56c-41.9-33.91-65.12-79.3-65.37-127.8
		c-0.24-45.27,19.84-88.51,56.61-122.03c7.85-42.32,24.34-124.08,24.51-124.91l3.42-16.93l10.04,14.06
		c1.54,2.16,35.85,50.24,53.46,77.96c22.49-6.38,46.01-9.68,70.02-9.8c24-0.13,47.56,2.92,70.12,9.06
		c17.31-27.9,51.12-76.34,52.64-78.51l9.89-14.16l3.59,16.89c0.18,0.84,17.53,82.41,25.82,124.65
		c37.11,33.13,57.65,76.16,57.89,121.42c0.26,48.5-22.48,94.13-64.02,128.48C1627.88,1721.31,1573.18,1740.2,1514.96,1740.51z
		 M1387.41,1334.22c-5.43,27.13-15.97,80.1-21.5,110.13l-0.47,2.54l-1.93,1.71c-34.72,30.85-53.72,70.79-53.5,112.47
		c0.48,91.26,92.38,165.03,204.87,164.43s203.61-75.32,203.13-166.58c-0.22-41.68-19.64-81.42-54.68-111.9l-1.95-1.69l-0.49-2.53
		c-5.84-29.97-16.94-82.83-22.66-109.9c-12.7,18.44-34.39,50.31-45.2,68.29l-2.99,4.98l-5.57-1.66
		c-22.82-6.78-46.82-10.16-71.33-10.03s-48.47,3.75-71.22,10.78l-5.55,1.71l-3.05-4.95
		C1422.32,1384.17,1400.3,1352.53,1387.41,1334.22z"/>
</g>
<path d="M1565.58,1522.02l-14.37,25.46l-74.61,0.39l-14.64-25.3l-12.98,7.51l65.43,113.11l64.23-113.8L1565.58,1522.02z
	 M1514.25,1612.95l-29-50.13l57.47-0.3L1514.25,1612.95z"/>
<polygon points="1432.63,1495.94 1403.83,1496.09 1375.22,1532.24 1396.82,1532.13 "/>
<polygon points="1594.63,1495.08 1623.43,1494.93 1652.42,1530.78 1630.82,1530.89 "/>
<g>
	<circle class="st0" cx="573.69" cy="1508.01" r="431.01"/>
	<path d="M571.42,1077.01c238.04-1.25,432.02,190.7,433.28,428.74c1.25,238.04-190.7,432.02-428.74,433.28
		s-432.02-190.7-433.28-428.74S333.38,1078.26,571.42,1077.01 M571.34,1062.01c-60.2,0.32-118.55,12.42-173.43,35.97
		c-52.99,22.74-100.52,55.15-141.26,96.32c-40.74,41.17-72.65,89.04-94.83,142.27c-22.97,55.12-34.46,113.59-34.14,173.8
		c0.32,60.21,12.42,118.55,35.97,173.43c22.74,52.99,55.15,100.52,96.32,141.26s89.04,72.65,142.27,94.83
		c55.12,22.97,113.59,34.46,173.8,34.14c60.2-0.32,118.55-12.42,173.43-35.97c52.99-22.74,100.52-55.15,141.26-96.32
		c40.74-41.17,72.65-89.04,94.83-142.27c22.97-55.12,34.46-113.59,34.14-173.8c-0.32-60.2-12.42-118.55-35.97-173.43
		c-22.74-52.99-55.15-100.52-96.32-141.26s-89.04-72.65-142.27-94.83C690.02,1073.18,631.55,1061.69,571.34,1062.01L571.34,1062.01z
		"/>
</g>
<path d="M575.15,1785.61c-74.15,0.39-144.01-28.12-196.72-80.27s-81.95-121.71-82.34-195.86s28.12-144.01,80.27-196.72
	s121.71-81.95,195.86-82.34s144.01,28.12,196.72,80.27s81.95,121.71,82.34,195.86c0.39,74.15-28.12,144.01-80.27,196.72
	S649.3,1785.22,575.15,1785.61z M572.27,1238.42c-72.01,0.38-139.57,28.78-190.22,79.97s-78.34,119.04-77.96,191.05
	s28.78,139.57,79.97,190.22s119.04,78.34,191.05,77.96s139.57-28.78,190.22-79.97s78.34-119.04,77.96-191.05
	c-0.38-72.01-28.78-139.57-79.97-190.22C712.13,1265.73,644.28,1238.04,572.27,1238.42z"/>
<g>
	<path d="M283.55,1653.43l-0.1-0.23l-65.42,13.52l-8.5-20.56l55.92-36.51l-0.1-0.23l-62.37,20.91l-8.02-19.41l90.42-26.02
		l9.93,24.03l-61.04,39.17l0.1,0.23l70.93-15.25l9.89,23.91l-82.4,45.42l-8.21-19.87L283.55,1653.43z"/>
	<path d="M306,1776.43c-11.55-0.49-21.69-5.88-30.41-16.18s-12.37-21.19-10.95-32.66c1.42-11.47,7.86-22.05,19.31-31.75
		c11.45-9.69,22.94-14.3,34.49-13.81c11.55,0.48,21.69,5.88,30.41,16.18s12.37,21.19,10.95,32.66
		c-1.43,11.47-7.86,22.05-19.31,31.75C329.05,1772.31,317.55,1776.92,306,1776.43z M326.12,1745.64c15.26-12.92,18.26-24.86,9-35.79
		c-9.26-10.94-21.54-9.93-36.84,3.02c-15.3,12.95-18.31,24.9-9.05,35.83C298.5,1759.64,310.79,1758.62,326.12,1745.64z"/>
	<path d="M327.81,1811.92l51.93-77.76l17.36,11.59l-6.81,64.44l0.21,0.14l31.86-47.71l17.36,11.59l-51.93,77.76l-17.36-11.59
		l6.81-64.44l-0.21-0.14l-31.86,47.71L327.81,1811.92z"/>
	<path d="M412.3,1864.8l57.96-79.36l21.97,7.23l-0.49,98.27l-21.97-7.23l1.46-20.84l-26.24-8.63l-11.2,17.63L412.3,1864.8z
		 M453.94,1839.82l18.52,6.09l2.69-38.99l-0.24-0.08L453.94,1839.82z"/>
	<path d="M536.85,1848.92c-0.61,9.73,1.22,17.42,5.5,23.08c4.28,5.66,10.24,8.72,17.9,9.2c6.82,0.43,14.22-0.49,22.21-2.74
		l-1.16,18.46c-7.85,1.43-16.11,1.87-24.76,1.33c-13.97-0.88-24.69-5.68-32.16-14.42s-10.72-20.84-9.75-36.31
		c0.95-15.14,5.56-26.66,13.82-34.58c8.26-7.91,19.34-11.44,33.23-10.56c8.98,0.56,17.03,2.07,24.14,4.52l-1.17,18.59
		c-7.74-3.16-14.89-4.94-21.46-5.36c-7.73-0.48-13.91,1.72-18.51,6.6C540.09,1831.63,537.47,1839.02,536.85,1848.92z"/>
	<path d="M680.62,1871.87c-5.99,9.89-15.59,16.18-28.82,18.86c-13.23,2.69-24.53,0.64-33.9-6.13s-15.54-17.51-18.53-32.21
		s-1.48-27,4.5-36.88c5.98-9.89,15.59-16.17,28.82-18.86s24.53-0.64,33.9,6.13s15.54,17.51,18.53,32.21
		S686.61,1861.98,680.62,1871.87z M663.32,1839.41c-3.98-19.6-12.99-27.97-27.04-25.12s-19.08,14.1-15.09,33.74
		s13,28.04,27.05,25.19C662.29,1870.36,667.31,1859.09,663.32,1839.41z"/>
	<path d="M715.82,1870.74l-36.79-85.96l21.95-9.39l36.79,85.96L715.82,1870.74z"/>
	<path d="M763.69,1849.78l-52.83-77.14l17.22-11.79l57.27,30.32l0.21-0.14l-32.42-47.34l17.22-11.79l52.83,77.15l-17.22,11.79
		l-57.27-30.32l-0.21,0.14l32.42,47.34L763.69,1849.78z"/>
	<path d="M902.01,1697.79c2.49,11.29-0.13,22.47-7.86,33.54c-7.73,11.07-17.32,17.38-28.77,18.94
		c-11.45,1.56-23.33-1.96-35.63-10.54c-12.3-8.59-19.69-18.52-22.18-29.81s0.13-22.47,7.86-33.54
		c7.73-11.07,17.32-17.38,28.77-18.94c11.45-1.56,23.33,1.96,35.63,10.54C892.13,1676.57,899.52,1686.51,902.01,1697.79z
		 M867.1,1686.23c-16.4-11.45-28.7-11.29-36.91,0.46c-8.21,11.75-4.09,23.37,12.34,34.84c16.44,11.47,28.75,11.33,36.96-0.42
		C887.69,1709.35,883.56,1697.72,867.1,1686.23z"/>
	<path d="M849.15,1616.78l37.89,13.2l0.08-0.24l-29.38-37.63l8.26-23.73l32.27,43.8l56.44-14.23l-8.26,23.73l-50.36,11.19
		l-0.08,0.24l41.44,14.43l-7.15,20.54l-88.3-30.75L849.15,1616.78z"/>
</g>
<path d="M575.9,1926.73c-56.52,0.3-111.42-10.48-163.16-32.05c-49.97-20.83-94.91-50.78-133.56-89.03s-69.08-82.87-90.43-132.62
	c-22.11-51.51-33.47-106.29-33.77-162.81c-0.3-56.52,10.48-111.42,32.05-163.16c20.83-49.97,50.78-94.91,89.03-133.56
	s82.87-69.08,132.62-90.43c51.51-22.11,106.29-33.47,162.81-33.76s111.42,10.48,163.16,32.05c49.97,20.83,94.91,50.78,133.56,89.03
	c38.66,38.25,69.08,82.87,90.43,132.62c22.11,51.51,33.47,106.29,33.77,162.81c0.3,56.52-10.48,111.42-32.05,163.16
	c-20.83,49.97-50.78,94.91-89.03,133.56s-82.87,69.08-132.62,90.43C687.2,1915.07,632.42,1926.43,575.9,1926.73z M571.53,1097.3
	c-55.45,0.29-109.18,11.43-159.7,33.12c-48.8,20.94-92.57,50.79-130.09,88.71c-37.52,37.92-66.9,82-87.33,131.02
	c-21.15,50.74-31.72,104.59-31.43,160.04c0.29,55.45,11.43,109.18,33.12,159.7c20.94,48.8,50.79,92.57,88.71,130.09
	s82,66.9,131.02,87.33c50.74,21.15,104.59,31.72,160.04,31.43c55.45-0.29,109.18-11.43,159.7-33.12
	c48.8-20.94,92.57-50.79,130.09-88.71c37.52-37.92,66.9-82,87.33-131.02c21.15-50.74,31.72-104.59,31.43-160.04
	c-0.29-55.45-11.43-109.18-33.12-159.7c-20.94-48.8-50.79-92.57-88.71-130.09c-37.92-37.52-82-66.9-131.02-87.33
	C680.82,1107.58,626.98,1097.01,571.53,1097.3z"/>
<polygon points="233.77,1449.57 247.14,1476.29 276.74,1480.44 255.45,1501.41 260.65,1530.83 234.13,1517.07 207.75,1531.11 
	212.65,1501.63 191.14,1480.89 220.69,1476.43 "/>
<polygon points="917.77,1445.96 931.13,1472.69 960.73,1476.83 939.44,1497.8 944.64,1527.23 918.12,1513.46 891.74,1527.51 
	896.64,1498.03 875.13,1477.28 904.68,1472.83 "/>
<g>
	<path d="M222.78,1397.3l-17.24-7.37l27.94-65.42l17.24,7.36l-14.27,33.41l13.75,6l16.06-37.61l16.81,7.18l-16.06,37.61
		c0.07,0.03,0.61,0.26,1.62,0.69c1.01,0.43,2.15,0.94,3.43,1.53c1.28,0.59,2.35,1.07,3.21,1.43c3.08,1.15,5.6,1.61,7.56,1.38
		c1.96-0.22,3.64-1.86,5.03-4.92c1.39-3.06,2.88-6.63,4.45-10.71c1.58-4.08,2.92-7.59,4.04-10.51s1.69-4.42,1.73-4.49l17.46,7.46
		c-0.03,0.07-0.63,1.52-1.79,4.33c-1.16,2.82-2.65,6.41-4.47,10.77s-3.58,8.43-5.28,12.21c-1.7,3.78-4.08,7.11-7.14,10.01
		c-3.06,2.9-6.82,4.37-11.26,4.43s-9.6-1-15.47-3.17c-1.08-0.46-2.4-1-3.96-1.63c-1.56-0.62-2.96-1.18-4.2-1.67
		c-1.24-0.48-1.89-0.74-1.96-0.77l-8.01,18.75l-16.81-7.18l7.96-18.64l-13.79-5.89L222.78,1397.3z"/>
	<path d="M278.37,1315.44l-14.41-12l21.22-25.49l-15.94-13.27l12-14.41l15.94,13.27l18.97-22.79l14.41,12l-18.97,22.79l10.81,9
		c6.4,5.63,10.46,11.46,12.21,17.48c1.74,6.03,2.35,11.74,1.82,17.14s-1.53,10.44-2.99,15.13c-1.46,4.68-2.89,8.42-4.3,11.21
		c-1.41,2.79-2.17,4.19-2.28,4.2l-14.77-12.3c0.05-0.06,0.55-0.99,1.49-2.8c0.95-1.8,1.9-4.21,2.88-7.21s1.55-6.35,1.74-10.06
		c0.19-3.71-0.58-7.27-2.31-10.69c-1.73-3.42-4.52-6.78-8.37-10.09l-7.93-6.6L278.37,1315.44z"/>
	<path d="M338.98,1226.13l-10.26-15.27l59.83-40.18l47.83,71.21l-59.83,40.18l-10.26-15.27l43.97-29.53l-27.31-40.66L338.98,1226.13
		z"/>
	<path d="M493.46,1126.71c-1.04,7.47-2.89,14.8-5.55,21.97c-2.66,7.18-5.16,13.48-7.52,18.92l18.88,58.68l-17.63,5.67l-14.5-45.07
		c-4.24,6.46-8.56,11.91-12.96,16.36s-7.98,7.72-10.76,9.8c-2.78,2.08-4.2,3.14-4.28,3.16l-5.78-17.96c0.07-0.02,1.72-1.4,4.95-4.12
		s7.15-6.78,11.78-12.16c4.63-5.39,9.08-12.15,13.35-20.3c4.27-8.15,7.58-17.64,9.91-28.49L493.46,1126.71z"/>
	<path d="M524.14,1143.21l-0.56-18.27l36.55-1.11l0.56,18.27L524.14,1143.21z M602.08,1142.24c-3.47,14.41-8.35,26.21-14.63,35.38
		c-6.29,9.18-12.89,16.32-19.81,21.41c-6.92,5.1-13.51,8.76-19.77,10.98s-11.4,3.57-15.41,4.04c-4.01,0.47-6.06,0.67-6.14,0.6
		l-0.58-19.09c0.08,0.08,1.68-0.03,4.8-0.32c3.12-0.29,7.1-1.21,11.93-2.77c4.84-1.55,9.89-4.4,15.16-8.55
		c5.27-4.15,10.09-9.35,14.47-15.62c4.38-6.27,8.17-14.77,11.36-25.49L602.08,1142.24z"/>
	<path d="M704.93,1199.37l-22.89-6.25c-2.53,6.06-5.57,10.86-9.1,14.42c7.34,5.99,17.27,11.27,29.79,15.83
		c-1.78,1.07-3.8,2.61-6.07,4.62s-4.11,3.87-5.52,5.58c-12.3-5.12-22.02-11.18-29.15-18.19c-5.81,2.73-12.93,4.23-21.37,4.49
		c-0.39-1.79-1.15-4.13-2.29-7c-1.14-2.88-2.23-5.23-3.28-7.07c7.1,0.46,13.03-0.15,17.81-1.82c-2.85-4.63-5.19-10.16-7.01-16.59
		l12.3-0.18c0.94,3.23,2.59,6.58,4.95,10.06c1.96-2.23,3.66-4.87,5.1-7.92l-20.63-5.64l8-29.3l21.29,5.82l1.44-5.28l-22.99-6.28
		l2.37-8.67c-1.32,1.6-3.77,4.27-7.35,8.01l-19.02,69.62l-13.28-3.63l13.56-49.65c-3.03,2.21-5.86,4.04-8.48,5.48
		c-0.08-1.91-0.47-4.65-1.15-8.21c-0.68-3.56-1.36-6.34-2.02-8.35c5.61-2.99,11.31-7.07,17.11-12.23s10.82-10.71,15.07-16.64
		l11.84,7.79c-0.33,0.45-0.86,1.18-1.61,2.19c-0.75,1.01-1.32,1.73-1.71,2.17l21.1,5.76l2.19-8.01l13.85,3.78l-2.19,8.01l24.4,6.67
		l-3.45,12.62l-24.4-6.67l-1.44,5.28l22.23,6.07L704.93,1199.37z M665.1,1169.15l-1.85,6.78l8.67,2.37l1.85-6.78L665.1,1169.15z
		 M696.38,1177.7l-8.76-2.39l-1.85,6.78l8.76,2.39L696.38,1177.7z"/>
	<path d="M743.38,1185.9l49.53,32.61l-7.99,12.14l-17.6,3.29c1.83,2.33,2.39,4.5,1.68,6.51s-1.66,3.84-2.85,5.49
		c-0.9,1.37-1.87,2.84-2.9,4.4c-1.03,1.57-1.85,2.81-2.45,3.72c-0.6,0.91-0.65,0.98-0.13,0.2c-0.77,1.17-1.17,1.99-1.19,2.44
		c-0.02,0.46,0.49,1.03,1.54,1.71c1.54,1.21,3.79,2.45,6.73,3.73s5.48,2.25,7.62,2.91s3.24,1.01,3.31,1.05l-9.86,14.97
		c-7.9-2.49-14.54-5.55-19.91-9.18c-4.72-3.2-7.51-6.54-8.36-10c-0.86-3.46,0.4-7.68,3.78-12.67c0.82-1.24,1.71-2.59,2.67-4.06
		c0.97-1.47,1.8-2.74,2.51-3.82s1.08-1.65,1.13-1.71c0.04-0.06,0.2-0.34,0.47-0.82c0.27-0.48,0.41-0.94,0.43-1.4
		c0.02-0.46-0.31-0.67-0.98-0.65l-47.54,8.27l13.6-20.65l45.86-6.57l-27.99-18.43L743.38,1185.9z M764.16,1171.39
		c3.65,2.12,7.01,4.17,10.06,6.13c3.06,1.97,6.43,4.26,10.13,6.88s7.06,5.19,10.09,7.7c3.02,2.51,5.43,4.58,7.2,6.22
		s2.73,2.5,2.86,2.58l-8.89,13.51c-0.09-0.15-0.99-1.09-2.7-2.83c-1.71-1.73-4.08-3.86-7.11-6.36c-3.03-2.51-6.44-5.06-10.25-7.66
		c-5.83-3.93-10.62-7.06-14.37-9.39s-5.66-3.52-5.72-3.56L764.16,1171.39z"/>
	<path d="M820.96,1249.18l19.78,23.02l4.98-4.28l-21.16-24.62l12.35-10.62l21.16,24.62l7.64-6.57l11.08,12.89l-7.64,6.57
		l16.12,18.75l-12.35,10.62l-16.12-18.75l-4.98,4.28l14.82,17.24l-12.09,10.39l-14.82-17.24l-6.49,5.58
		c1.29,3.42,2.31,7.18,3.05,11.28s1.21,7.56,1.42,10.37c0.2,2.81,0.27,4.3,0.2,4.46l-15.29,13.14c0.01-0.11,0.03-1.67,0.06-4.69
		c0.03-3.02-0.05-6.71-0.24-11.07c-0.2-4.36-0.72-8.65-1.56-12.87l-2.76,2.37c-4.67,3.91-8.95,5.86-12.82,5.85
		c-3.88-0.02-7.25-1.03-10.12-3.05s-5.47-4.44-7.8-7.28c-3-3.5-5.21-7.26-6.62-11.3s-1.69-7.9-0.83-11.57
		c0.86-3.67,2.93-7.02,6.2-10.04c4.09-3.51,8.29-5.22,12.6-5.11c4.31,0.1,8.68,1.63,13.12,4.56c4.43,2.94,8.46,6.46,12.08,10.55
		l4.71-4.05l-19.78-23.02L820.96,1249.18z M799.04,1299.55c1.07,1.24,2.35,2.05,3.85,2.41s2.95,0.04,4.35-0.96l5.6-4.81
		c-2.74-4.14-5.65-6.84-8.74-8.1c-3.09-1.26-5.32-1.36-6.67-0.3c-1.36,1.17-2.1,2.65-2.21,4.45
		C795.12,1294.03,796.39,1296.46,799.04,1299.55z"/>
	<path d="M885.91,1321.65l15.13-6.93l18.85,41.12l10.97-5.03l6.93,15.13l-10.97,5.03l7.32,15.98l-15.13,6.93l-7.32-15.98
		l-20.88,9.57c-3.98,4.06-7.77,7.04-11.37,8.95c-5.55,2.89-11,4.78-16.34,5.69c-5.34,0.9-11.04,0.94-17.1,0.1l-7.47-16.3
		c3.16,0.53,6.46,0.69,9.89,0.49s6.34-0.5,8.74-0.91c2.39-0.41,3.66-0.64,3.8-0.71c-3.5-0.89-6.32-2.02-8.46-3.41
		c-2.14-1.38-3.96-3.53-5.47-6.45c-1.93-4.01-2.59-8.05-2-12.1c0.59-4.05,2.38-7.84,5.37-11.35c2.98-3.52,7.12-6.45,12.41-8.78
		c4.47-1.88,9.04-2.68,13.72-2.42c4.67,0.26,8.77,1.65,12.29,4.17s6.41,6.26,8.69,11.23c0.74,1.98,1.2,3.88,1.38,5.68
		c0.18,1.81,0.19,3.18,0.02,4.12l5.86-2.69L885.91,1321.65z M878.13,1376.4c1.5-0.86,2.84-1.86,4.04-3.01
		c0.9-0.84,1.75-2.22,2.55-4.13s0.62-4.41-0.53-7.49c-1.8-3.56-4.01-5.6-6.61-6.12c-2.61-0.53-5.26-0.17-7.96,1.07
		c-3.77,1.73-6.11,3.92-7.04,6.58c-0.93,2.66-0.5,5.38,1.3,8.17c1.73,2.47,3.69,4.02,5.87,4.66c2.18,0.63,4.09,0.85,5.72,0.67
		C877.1,1376.59,877.99,1376.46,878.13,1376.4z"/>
</g>
<g>
	<path d="M575.67,1740.51c-58.22,0.31-113.11-18-154.58-51.56c-41.9-33.91-65.12-79.3-65.37-127.8
		c-0.24-45.27,19.84-88.51,56.61-122.03c7.85-42.32,24.34-124.08,24.51-124.91l3.42-16.93l10.04,14.06
		c1.54,2.16,35.85,50.24,53.46,77.96c22.49-6.38,46.01-9.68,70.02-9.8c24-0.13,47.56,2.92,70.12,9.06
		c17.31-27.9,51.12-76.34,52.64-78.51l9.89-14.16l3.59,16.89c0.18,0.84,17.53,82.41,25.82,124.65
		c37.11,33.13,57.65,76.16,57.89,121.42c0.26,48.5-22.48,94.13-64.02,128.48C688.59,1721.31,633.89,1740.2,575.67,1740.51z
		 M448.12,1334.22c-5.43,27.13-15.97,80.1-21.5,110.13l-0.47,2.54l-1.93,1.71c-34.72,30.85-53.72,70.79-53.5,112.47
		c0.48,91.26,92.38,165.03,204.87,164.43s203.61-75.32,203.13-166.58c-0.22-41.68-19.64-81.42-54.68-111.9l-1.95-1.69l-0.49-2.53
		c-5.84-29.97-16.94-82.83-22.66-109.9c-12.7,18.44-34.39,50.31-45.2,68.29l-2.99,4.98l-5.57-1.66
		c-22.82-6.78-46.82-10.16-71.33-10.03s-48.47,3.75-71.22,10.78l-5.55,1.71l-3.05-4.95
		C483.04,1384.17,461.01,1352.53,448.12,1334.22z"/>
</g>
<path d="M626.29,1522.02l-14.37,25.46l-74.61,0.39l-14.64-25.3l-12.98,7.51l65.43,113.11l64.23-113.8L626.29,1522.02z
	 M574.97,1612.95l-29-50.13l57.47-0.3L574.97,1612.95z"/>
<polygon points="493.35,1495.94 464.55,1496.09 435.94,1532.24 457.54,1532.13 "/>
<polygon points="655.35,1495.08 684.14,1494.93 713.13,1530.78 691.53,1530.89 "/>
</svg>
